<?xml version="1.0" encoding="UTF-8"?>
<svg version="1.1" viewBox="0 0 30 30" xmlns="http://www.w3.org/2000/svg">
 <!-- GitHub -->
 <path d="m14.999 0c-8.283 0-14.999 6.716-14.999 15 0 6.628 4.2976 12.249 10.258 14.233.7505.1374 1.024-.3253 1.024-.7226 0-.3561-.0129-1.3-.0203-2.5507-4.1723.9053-5.0527-2.012-5.0527-2.012-.68235-1.7321-1.6659-2.1934-1.6659-2.1934-1.3619-.9307.10314-.912.10314-.912 1.5056.1067 2.2975 1.5453 2.2975 1.5453 1.338 2.2921 3.5112 1.6307 4.3658 1.2467.1363-.9693.5231-1.6307.9522-2.0053-3.3307-.3787-6.8328-1.6654-6.8328-7.4134 0-1.6374.58474-2.976 1.5443-4.0254-.15469-.37863-.66946-1.904.14641-3.9693 0 0 1.2597-.404 4.1254 1.5374 1.1962-.332 2.4798-.49867 3.7551-.504 1.2736.005 2.5572.172 3.7552.504 2.8639-1.9414 4.1208-1.5374 4.1208-1.5374.8187 2.0654.3039 3.5907.1493 3.9693.9613 1.0494 1.5424 2.388 1.5424 4.0254 0 5.7627-3.5075 7.0307-6.8493 7.4014.5387.464 1.0184 1.3787 1.0184 2.7787 0 2.004-.0184 3.6227-.0184 4.1147 0 .4013.2699.868 1.0314.7213 5.956-1.988 10.25-7.6067 10.25-14.232 0-8.2841-6.7166-15-15.001-15"/>
 <!-- Twitter -->
 <path d="m30 15c0 8.2875-6.7125 15-15 15s-15-6.7125-15-15 6.7125-15 15-15 15 6.7125 15 15zm-17.745 7.9125c6.6525 0 10.29-5.5125 10.29-10.29 0-.15749 0-.315-.008-.465.705-.51 1.32-1.1475 1.8075-1.875-.645.285-1.3425.48-2.0775.57.75-.45 1.32-1.155 1.59-2.0025-.69751.41249-1.47.71249-2.295.87749-.66-.705-1.5975-1.14-2.64-1.14-1.995 0-3.615 1.62-3.615 3.615 0 .285.03.56251.09747.825-3.0075-.15-5.67-1.59-7.455-3.78-.30749.53251-.48751 1.155-.48751 1.815 0 1.2525.63751 2.3625 1.6125 3.0075-.59249-.01507-1.1475-.18-1.635-.45v.04493c0 1.755 1.245 3.21 2.9025 3.5475-.3.08253-.62251.12747-.95251.12747-.23249 0-.45749-.02253-.68249-.06747.45749 1.44 1.7925 2.4825 3.375 2.5125-1.2375.96751-2.7975 1.545-4.4925 1.545-.29251 0-.57751-.01507-.86251-.05253 1.5825 1.035 3.4875 1.635 5.5275 1.635"/>
 <!-- Instagram -->
 <path d="m15 .49999c-3.938 0-4.4319.01732-5.9785.08789-1.5434.07039-2.5972.31542-3.5195.67383-.9535.37056-1.7622.86578-2.5684 1.6719-.8061.8061-1.3013 1.6149-1.6719 2.5684-.35843.92231-.60339 1.9762-.67383 3.5195-.07055 1.5466-.08789 2.0405-.08789 5.9785 0 3.9379.01734 4.4319.08789 5.9785.07044 1.5434.3154 2.5972.67383 3.5195.37055.9536.86577 1.7623 1.6719 2.5684s1.6149 1.3013 2.5684 1.6719c.92233.3584 1.9762.6034 3.5195.6738 1.5466.0706 2.0405.0879 5.9785.0879 3.9379 0 4.4319-.0173 5.9785-.0879 1.5434-.0704 2.5972-.3154 3.5195-.6738.9536-.3706 1.7622-.8658 2.5684-1.6719.8061-.8061 1.3013-1.6148 1.6719-2.5684.3584-.9223.6034-1.9761.6738-3.5195.0706-1.5466.0879-2.0406.0879-5.9785 0-3.938-.0173-4.4319-.0879-5.9785-.0704-1.5434-.3154-2.5972-.6738-3.5195-.3706-.9535-.8658-1.7623-1.6719-2.5684-.8062-.80609-1.6148-1.3013-2.5684-1.6719-.9223-.35841-1.9761-.60344-3.5195-.67383-1.5466-.07057-2.0406-.08789-5.9785-.08789zm0 2.6133c3.8716 0 4.3304.01422 5.8594.08399 1.4137.06446 2.1804.30142 2.6914.5.6768.26304 1.1606.57661 1.668 1.084.5074.50743.8209.99115 1.0839 1.668.1986.51094.4356 1.2777.5 2.6914.0698 1.529.084 1.9877.084 5.8594 0 3.8716-.0142 4.3304-.084 5.8594-.0644 1.4137-.3014 2.1804-.5 2.6914-.263.6768-.5765 1.1606-1.0839 1.668s-.9912.8209-1.668 1.0839c-.511.1986-1.2777.4356-2.6914.5-1.5288.0698-1.9875.084-5.8594.084-3.872 0-4.3306-.0142-5.8594-.084-1.4137-.0644-2.1805-.3014-2.6914-.5-.67683-.263-1.1606-.5765-1.668-1.0839s-.82095-.9912-1.084-1.668c-.19858-.511-.4355-1.2777-.5-2.6914-.06977-1.529-.08399-1.9878-.08399-5.8594 0-3.8717.01422-4.3304.08399-5.8594.0645-1.4137.30142-2.1805.5-2.6914.26303-.67682.5766-1.1606 1.084-1.668.50741-.50743.99114-.82094 1.668-1.084.51094-.19858 1.2777-.43554 2.6914-.5 1.529-.06976 1.9877-.08399 5.8594-.08399zm7.7402 2.4062c-.9609 0-1.7402.77925-1.7402 1.7402 0 .96098.7793 1.7402 1.7402 1.7402.961 0 1.7403-.77925 1.7403-1.7402 0-.96099-.7793-1.7402-1.7403-1.7402zm-7.7402 2.0352c-4.1123 0-7.4453 3.333-7.4453 7.4453s3.333 7.4453 7.4453 7.4453 7.4453-3.333 7.4453-7.4453-3.333-7.4453-7.4453-7.4453zm0 2.6113c2.6694 0 4.834 2.1646 4.834 4.834s-2.1646 4.834-4.834 4.834-4.834-2.1646-4.834-4.834 2.1646-4.834 4.834-4.834z"/>
 <!-- RSS -->
 <path d="m15 0c-8.2843 0-15 6.7157-15 15 0 3.9782 1.5804 7.7936 4.3934 10.607 2.813 2.813 6.6284 4.3934 10.607 4.3934 8.2843 0 15-6.7157 15-15s-6.7157-15-15-15zm-7.8275 6.1621c9.2048 0 16.667 7.4619 16.667 16.667h-3.3333c0-7.3638-5.9696-13.333-13.333-13.333zm0 5.6667c6.0752 0 11 4.9249 11 11h-3.3333c0-4.2342-3.4325-7.6667-7.6667-7.6667zm1.6084 6.8073c1.4469 0 2.6198 1.1645 2.6198 2.6009s-1.1729 2.6009-2.6198 2.6009-2.6198-1.1645-2.6198-2.6009c-1e-5-1.4364 1.1729-2.6009 2.6198-2.6009z"/>
</svg>
