<?xml version="1.0" encoding="UTF-8" standalone="no"?>
<!-- Created with Inkscape (http://www.inkscape.org/) -->

<svg
   width="60mm"
   height="30mm"
   viewBox="0 0 60 30"
   version="1.1"
   id="svg1"
   inkscape:version="1.4 (e7c3feb, 2024-10-09)"
   sodipodi:docname="stempel-pfade.svg"
   inkscape:export-filename="stempel-pfade.pdf"
   inkscape:export-xdpi="600"
   inkscape:export-ydpi="600"
   xmlns:inkscape="http://www.inkscape.org/namespaces/inkscape"
   xmlns:sodipodi="http://sodipodi.sourceforge.net/DTD/sodipodi-0.dtd"
   xmlns="http://www.w3.org/2000/svg"
   xmlns:svg="http://www.w3.org/2000/svg">
  <sodipodi:namedview
     id="namedview1"
     pagecolor="#ffffff"
     bordercolor="#000000"
     borderopacity="0.25"
     inkscape:showpageshadow="2"
     inkscape:pageopacity="0.0"
     inkscape:pagecheckerboard="0"
     inkscape:deskcolor="#d1d1d1"
     inkscape:document-units="mm"
     showguides="true"
     inkscape:zoom="2.0611265"
     inkscape:cx="166.89902"
     inkscape:cy="6.5498164"
     inkscape:window-width="1920"
     inkscape:window-height="1134"
     inkscape:window-x="0"
     inkscape:window-y="0"
     inkscape:window-maximized="1"
     inkscape:current-layer="layer1"
     inkscape:export-bgcolor="#ffffffff">
    <sodipodi:guide
       position="0,30.000035"
       orientation="0,2267.7165"
       id="guide1"
       inkscape:locked="false" />
    <sodipodi:guide
       position="59,30"
       orientation="-1,0"
       id="guide2"
       inkscape:locked="false"
       inkscape:label=""
       inkscape:color="rgb(0,134,229)" />
    <sodipodi:guide
       position="0,1"
       orientation="0,1"
       id="guide3"
       inkscape:locked="false"
       inkscape:label=""
       inkscape:color="rgb(0,134,229)" />
    <sodipodi:guide
       position="0,-269.99997"
       orientation="-1133.8583,0"
       id="guide4"
       inkscape:locked="false" />
    <sodipodi:guide
       position="0,29.000035"
       orientation="0,1"
       id="guide5"
       inkscape:locked="false"
       inkscape:label=""
       inkscape:color="rgb(0,134,229)" />
    <sodipodi:guide
       position="1,30.000035"
       orientation="-1,0"
       id="guide7"
       inkscape:locked="false"
       inkscape:label=""
       inkscape:color="rgb(0,134,229)" />
    <sodipodi:guide
       position="0,30"
       orientation="0,226.77165"
       id="guide24"
       inkscape:locked="false" />
    <sodipodi:guide
       position="60,30"
       orientation="113.38583,0"
       id="guide25"
       inkscape:locked="false" />
    <sodipodi:guide
       position="60,0"
       orientation="0,-226.77165"
       id="guide26"
       inkscape:locked="false" />
    <sodipodi:guide
       position="0,0"
       orientation="-113.38583,0"
       id="guide27"
       inkscape:locked="false" />
  </sodipodi:namedview>
  <defs
     id="defs1" />
  <g
     inkscape:label="Layer 1"
     inkscape:groupmode="layer"
     id="layer1">
    <path
       style="fill:#000000;stroke-width:0.152929"
       d="m 6.352496,1 -2.79305,2.7930439 c 0.314061,1.83e-4 0.594875,0.03584 0.841911,0.107999 0.116796,0.03323 0.227551,0.07412 0.332649,0.122321 h 3.231905 c 0.105097,-0.0482 0.215853,-0.08906 0.332643,-0.122321 0.24836,-0.07253 0.53089,-0.108196 0.846985,-0.107999 z m -2.81632,3.5872229 c -0.121321,0 -0.229719,0.01595 -0.325187,0.04774 -0.09348,0.03179 -0.168064,0.07956 -0.223754,0.143199 -0.0537,0.06364 -0.08056,0.143198 -0.08056,0.238672 0,0.07757 0.02289,0.147187 0.06862,0.208836 0.04572,0.05967 0.126298,0.120328 0.241655,0.181988 0.115357,0.05967 0.276462,0.129281 0.48331,0.208836 0.493251,0.145199 0.867169,0.327181 1.121753,0.545959 0.256567,0.21679 0.384854,0.512152 0.384854,0.88607 0,0.256572 -0.06961,0.475356 -0.208836,0.656344 -0.139222,0.179 -0.333146,0.31624 -0.58176,0.411707 -0.248614,0.09346 -0.538005,0.140217 -0.868163,0.140217 -0.252215,0 -0.483888,-0.01757 -0.695729,-0.0519 L 6.352492,11.704999 9.85409,8.2033989 c -0.213605,0.03503 -0.447473,0.05312 -0.702289,0.05312 -0.330158,0 -0.61955,-0.04676 -0.868163,-0.140222 C 8.035018,8.0208269 7.8411,7.8835899 7.701878,7.7045899 7.562656,7.5235959 7.493036,7.3048179 7.493036,7.0482449 c 0,-0.373912 0.128292,-0.669274 0.384859,-0.886063 0.254579,-0.218784 0.628503,-0.400766 1.121754,-0.545959 0.206848,-0.07956 0.367947,-0.149175 0.483309,-0.208842 0.115351,-0.06166 0.19593,-0.122321 0.241656,-0.181982 0.04572,-0.06157 0.06856,-0.131096 0.06861,-0.208542 -5.3e-5,-0.09534 -0.02693,-0.175092 -0.08055,-0.238672 -0.05572,-0.06364 -0.130274,-0.111392 -0.223754,-0.143199 -0.09546,-0.03179 -0.203866,-0.04774 -0.325187,-0.04774 -0.141216,0 -0.274473,0.01358 -0.399777,0.0415 -0.124726,0.02769 -0.220916,0.05823 -0.28849,0.09188 l -0.02416,0.11397 h -5.79e-4 l -0.09845,0.468391 H 7.576599 V 4.8345959 H 6.876101 v 3.371225 l 0.453473,0.09547 v 0.611596 H 5.375453 v -0.611596 l 0.453479,-0.09547 V 4.8345959 H 5.12336 v 0.468391 H 4.347682 l -0.09846,-0.468391 -0.0017,-0.0084 -0.02237,-0.105311 c -0.0676,-0.03375 -0.164001,-0.06442 -0.289092,-0.09219 -0.125298,-0.02786 -0.258561,-0.0415 -0.399771,-0.0415 z m 7.237998,0.834455 c -0.02763,0.08011 -0.0639,0.154105 -0.10979,0.221367 -0.117346,0.169064 -0.295356,0.315245 -0.534029,0.438555 -0.238667,0.123316 -0.543972,0.244643 -0.915901,0.363976 -0.165076,0.06365 -0.296345,0.126299 -0.393807,0.187953 -0.09746,0.05967 -0.167035,0.123316 -0.208836,0.190936 -0.04375,0.06762 -0.06563,0.144199 -0.06563,0.229719 -5e-6,0.0895 0.02289,0.166082 0.06861,0.229725 0.04572,0.06363 0.113369,0.112351 0.202872,0.146181 0.0895,0.03179 0.200883,0.04774 0.33414,0.04774 0.190935,0 0.366959,-0.02387 0.528058,-0.0716 0.161105,-0.04971 0.27348,-0.11038 0.337124,-0.181988 l 0.0895,-0.578772 h 0.808496 v 0.497031 l 0.79,-0.790001 z M 1.92694,5.4256779 1,6.3526169 1.784932,7.1375429 v -0.491662 h 0.808496 l 0.0895,0.578778 c 0.06364,0.07161 0.176018,0.13228 0.337123,0.181988 0.161099,0.04774 0.337122,0.0716 0.528058,0.0716 0.133257,0 0.244637,-0.01595 0.33414,-0.04774 0.0895,-0.03381 0.157123,-0.08256 0.202865,-0.146187 0.04572,-0.06365 0.06862,-0.140217 0.06862,-0.229719 0,-0.08553 -0.02185,-0.1621 -0.06563,-0.22972 C 4.046314,6.7572609 3.976723,6.6936069 3.879262,6.6339399 3.781802,6.5722899 3.650537,6.5096419 3.485455,6.4459869 3.113531,6.3266589 2.808227,6.2053319 2.569561,6.0820159 2.330888,5.9587059 2.152877,5.8122179 2.035532,5.6431599 1.990392,5.5769599 1.954422,5.5043709 1.926938,5.4256709 Z"
       id="path1" />
    <g
       id="text8"
       style="font-weight:900;font-size:5.15056px;line-height:4.9657px;font-family:'Roboto Slab';-inkscape-font-specification:'Roboto Slab, Heavy @wght=900';font-variant-ligatures:none;font-variation-settings:'wght' 900;stroke-width:0.0460494"
       transform="scale(0.93777092,1.0663585)"
       aria-label="Strong Type Systems">
      <path
         d="m 12.121585,10.597809 q -0.447656,0 -0.794715,-0.08551 -0.347058,-0.08551 -0.691602,-0.321909 v -0.95064 h 0.681543 l 0.07545,0.4878944 q 0.08048,0.090537 0.284186,0.1534101 0.203709,0.060358 0.445141,0.060358 0.1685,0 0.281671,-0.040239 0.113171,-0.042754 0.171015,-0.1232311 0.05784,-0.080477 0.05784,-0.1936488 0,-0.1081416 -0.05533,-0.1936488 -0.05281,-0.085507 -0.176045,-0.1609549 -0.123231,-0.077962 -0.331969,-0.15844 -0.47029,-0.1508951 -0.772081,-0.3068202 -0.30179,-0.155925 -0.45017,-0.3696932 -0.145866,-0.2137681 -0.145866,-0.530648 0,-0.3043053 0.17353,-0.5306481 0.173529,-0.2288577 0.477835,-0.3596335 0.304305,-0.1307758 0.696632,-0.1383206 0.447656,-0.01006 0.7922,0.090537 0.344544,0.098082 0.608611,0.2992755 V 8.1080381 H 12.795584 L 12.692472,7.6176287 q -0.08551,-0.042754 -0.243947,-0.077962 -0.15844,-0.035209 -0.337,-0.035209 -0.15341,0 -0.274126,0.040239 -0.118201,0.040239 -0.188619,0.1207161 -0.0679,0.080477 -0.0679,0.2011936 0,0.098082 0.05784,0.1760444 0.05784,0.075448 0.203709,0.1534101 0.145865,0.075448 0.407417,0.1760444 0.6237,0.1835891 0.94561,0.4602303 0.324424,0.2741262 0.324424,0.7469311 0,0.3244247 -0.176044,0.5532819 -0.176044,0.226343 -0.490409,0.347059 -0.314365,0.118202 -0.731842,0.118202 z m 2.773957,0.005 q -0.427537,0 -0.651365,-0.226342 -0.221313,-0.228858 -0.221313,-0.7217823 V 8.4324627 H 13.68335 V 7.8238522 h 0.339514 V 7.1523686 h 0.877707 v 0.6714836 h 0.445141 v 0.6086105 h -0.445141 v 1.2197361 q 0,0.1332907 0.06036,0.1861041 0.06036,0.052813 0.165985,0.052813 0.04527,0 0.09054,-0.00503 0.04527,-0.00503 0.09054,-0.012575 l 0.06036,0.6589093 q -0.115686,0.03269 -0.233887,0.0503 -0.115686,0.02012 -0.238917,0.02012 z m 0.812319,-0.05784 v -0.515558 l 0.31688,-0.080478 V 8.4224031 L 15.647503,8.3419256 V 7.8238522 h 1.209676 l 0.02012,0.3319694 0.005,0.067903 q 0.09054,-0.2313726 0.223828,-0.3395142 0.135806,-0.1106564 0.336999,-0.1106564 0.05533,0 0.130776,0.01006 0.07545,0.00754 0.15341,0.030179 l -0.08802,0.8098041 -0.377238,-0.017604 q -0.130776,-0.00503 -0.206223,0.030179 -0.07293,0.032694 -0.14838,0.1106565 v 1.2021316 l 0.316879,0.080478 v 0.515558 z m 3.475619,0.05281 q -0.419992,0 -0.719267,-0.17353 Q 18.167452,10.248235 18.009012,9.9363847 17.853087,9.6220198 17.853087,9.2095729 v -0.050298 q 0,-0.407417 0.155925,-0.719267 0.15844,-0.3118501 0.455201,-0.4878944 0.29676,-0.1785593 0.714237,-0.1785593 0.419991,0 0.714237,0.1760443 0.29676,0.1760444 0.452685,0.4878945 0.15844,0.31185 0.15844,0.7217819 v 0.050298 q 0,0.4099319 -0.15844,0.7242969 -0.155925,0.3118502 -0.452685,0.4878942 -0.294246,0.176045 -0.709207,0.176045 z m 0,-0.6714839 q 0.160954,0 0.256521,-0.085507 0.09808,-0.088022 0.140836,-0.2489771 0.04527,-0.1609548 0.04527,-0.3822678 v -0.050298 q 0,-0.2137681 -0.04527,-0.3722081 -0.04275,-0.1609548 -0.140836,-0.248977 -0.09808,-0.090537 -0.261551,-0.090537 -0.160955,0 -0.259037,0.090537 -0.09808,0.088022 -0.140836,0.248977 -0.04275,0.15844 -0.04275,0.3722081 v 0.050298 q 0,0.2238279 0.04275,0.3847827 0.04275,0.1609549 0.140836,0.2464622 0.09808,0.085507 0.264067,0.085507 z m 1.566795,0.6186699 v -0.515558 l 0.31688,-0.080478 V 8.4224031 L 20.689917,8.3419256 V 7.8238522 h 1.212191 l 0.03018,0.3797528 q 0.135806,-0.2037085 0.33197,-0.3168798 0.198678,-0.1131714 0.45017,-0.1131714 0.382268,0 0.603581,0.2590367 0.221313,0.2590367 0.221313,0.8223787 v 1.0939901 l 0.31688,0.080478 v 0.515558 h -1.458654 v -0.515558 l 0.256522,-0.080478 v -1.096505 q 0,-0.218798 -0.08802,-0.3093351 -0.08802,-0.093052 -0.251492,-0.093052 -0.123231,0 -0.211253,0.045269 -0.08802,0.042754 -0.15341,0.1307759 v 1.3228477 l 0.226342,0.080478 v 0.515558 z m 4.448892,1.09902 q -0.213768,0 -0.487894,-0.05281 -0.274126,-0.05281 -0.482865,-0.15341 l 0.140836,-0.608611 q 0.198679,0.07796 0.399872,0.118201 0.203709,0.04275 0.369693,0.04275 0.271612,0 0.397358,-0.150895 0.128261,-0.14838 0.128261,-0.407417 v -0.128261 q -0.113172,0.140836 -0.264067,0.218798 -0.14838,0.07545 -0.342029,0.07545 -0.331969,0 -0.568372,-0.1685 -0.236402,-0.1685 -0.362148,-0.4728049 -0.123231,-0.3068202 -0.123231,-0.7142372 v -0.052813 q 0,-0.4250215 0.123231,-0.7419013 0.123231,-0.3193949 0.352088,-0.4954392 0.231373,-0.1785593 0.550768,-0.1785593 0.236402,0 0.402387,0.1031117 0.165985,0.1031117 0.284186,0.2892157 l 0.05533,-0.342029 h 0.77711 v 2.6130018 q 0,0.362148 -0.165984,0.63376 -0.16347,0.271611 -0.467775,0.422506 -0.301791,0.150895 -0.716753,0.150895 z m 0.118202,-1.7227198 q 0.110656,0 0.201193,-0.035209 0.09054,-0.037724 0.145866,-0.1131713 V 8.6336563 q -0.05533,-0.090537 -0.145866,-0.1358057 -0.09054,-0.047783 -0.201193,-0.047783 -0.15844,0 -0.254007,0.093052 -0.09305,0.090537 -0.135806,0.2565218 -0.04024,0.1659847 -0.04024,0.3898126 v 0.052813 q 0,0.3244246 0.09305,0.5029839 0.09305,0.1760444 0.337,0.1760444 z M 26.446568,8.4324627 26.04921,7.8238522 h 0.809804 v 0.5205883 z m 2.645695,2.1125323 v -0.515558 l 0.382268,-0.080478 v -2.381629 h -0.565857 l -0.02264,0.3948424 H 28.219586 V 6.8832722 h 3.402686 v 1.0789005 h -0.673998 l -0.02012,-0.3948424 h -0.570887 v 2.381629 l 0.382268,0.080478 v 0.515558 z m 3.541008,1.09902 q -0.115687,0 -0.233888,-0.02012 -0.115686,-0.0176 -0.238917,-0.05281 l 0.105626,-0.631245 q 0.0503,0.01257 0.09557,0.0176 0.04778,0.0075 0.09808,0.0075 0.160955,0 0.284186,-0.06036 0.125746,-0.05784 0.15844,-0.181074 l 0.02515,-0.09557 -0.875192,-2.2332491 -0.364663,-0.052813 V 7.8238522 h 1.634698 v 0.5180734 l -0.337,0.050298 0.364664,1.1015349 0.005,0.020119 h 0.01509 l 0.430051,-1.1291989 -0.31185,-0.042754 V 7.8238522 h 1.486318 v 0.5180734 l -0.32191,0.045269 -1.018542,2.5551588 q -0.07293,0.183589 -0.196164,0.342029 -0.123231,0.160955 -0.319395,0.259036 -0.196164,0.100597 -0.485379,0.100597 z m 2.540068,-0.05281 v -0.518074 l 0.336999,-0.08048 V 8.4224031 L 35.128071,8.3419256 V 7.8238522 h 1.209676 l 0.03018,0.3068202 q 0.110657,-0.1710146 0.266582,-0.2640666 0.155925,-0.093052 0.382267,-0.093052 0.32191,0 0.553283,0.1785593 0.231372,0.1760443 0.354603,0.4954392 0.125746,0.3193948 0.125746,0.7419013 v 0.052813 q 0,0.407417 -0.125746,0.7142372 -0.123231,0.3043049 -0.357118,0.4728049 -0.233888,0.1685 -0.563342,0.1685 -0.201194,0 -0.354604,-0.07545 -0.150895,-0.07545 -0.261552,-0.221313 v 0.691603 l 0.306821,0.08048 v 0.518074 z m 1.56931,-1.6648769 q 0.238917,0 0.33197,-0.1785593 0.09305,-0.1810743 0.09305,-0.5054989 v -0.052813 q 0,-0.2238279 -0.04275,-0.3898126 -0.04275,-0.1659847 -0.138321,-0.2565218 -0.09305,-0.093052 -0.248977,-0.093052 -0.113171,0 -0.206223,0.050298 -0.09054,0.050298 -0.143351,0.1508951 v 1.1090797 q 0.05281,0.082992 0.145866,0.1257459 0.09305,0.040239 0.208738,0.040239 z m 2.934913,0.6714839 q -0.399873,0 -0.699148,-0.171015 -0.296761,-0.173529 -0.462745,-0.4728048 -0.16347,-0.2992755 -0.16347,-0.6765134 v -0.093052 q 0,-0.4149617 0.145865,-0.7343565 0.145866,-0.3193948 0.427537,-0.4979541 0.281671,-0.1810743 0.691603,-0.1785593 0.369693,0 0.6237,0.1433504 0.256521,0.1408355 0.389812,0.4174767 0.133291,0.2741262 0.133291,0.6765134 V 9.4660947 H 39.26763 l -0.0025,0.017605 q 0.02012,0.1282609 0.08551,0.2288577 0.0679,0.098082 0.186104,0.155925 0.118201,0.057843 0.291731,0.057843 0.171014,0 0.334484,-0.037724 0.165985,-0.040239 0.349574,-0.125746 l 0.201194,0.5331627 q -0.18359,0.130776 -0.447656,0.216283 -0.264067,0.08551 -0.588491,0.08551 z M 39.26763,8.9203572 h 0.691603 v -0.065388 q 0,-0.1458653 -0.03018,-0.2439472 -0.02766,-0.098082 -0.09808,-0.1483802 -0.07042,-0.050298 -0.193649,-0.050298 -0.133291,0 -0.213768,0.065388 -0.07796,0.062873 -0.115687,0.1760444 -0.03521,0.1106564 -0.0503,0.2540069 z"
         id="path42" />
      <path
         style="font-weight:300;-inkscape-font-specification:'Roboto Slab, Light @wght=300';font-variation-settings:'wght' 300"
         d="m 43.688858,10.597809 q -0.314365,0 -0.628729,-0.09557 -0.311851,-0.09557 -0.603581,-0.296761 V 9.4962738 h 0.251492 l 0.03772,0.5708872 q 0.221312,0.13832 0.46023,0.206223 0.238917,0.0679 0.482864,0.0679 0.289216,0 0.502984,-0.08802 0.216283,-0.09054 0.334485,-0.248977 0.120716,-0.1609553 0.120716,-0.3696936 0,-0.2011936 -0.09808,-0.3520888 Q 44.453394,9.1290955 44.234596,9.0134092 44.018313,8.8977229 43.646105,8.8021559 43.246233,8.6990442 42.992226,8.5607236 42.740734,8.4224031 42.620018,8.2287542 42.501816,8.0325905 42.501816,7.7634941 q 0,-0.2741263 0.145866,-0.4828646 0.145865,-0.2112533 0.407417,-0.3294545 0.264066,-0.1207161 0.61364,-0.1207161 0.369693,0 0.658909,0.1106564 0.291731,0.1106565 0.492924,0.284186 V 7.8791804 H 44.571595 L 44.533871,7.3611069 Q 44.375432,7.232846 44.159148,7.1599133 q -0.216283,-0.072933 -0.490409,-0.072933 -0.269096,0 -0.462745,0.090537 -0.193649,0.088022 -0.299276,0.2389174 -0.103111,0.1508951 -0.103111,0.342029 0,0.1835892 0.08299,0.3244247 0.08299,0.1383206 0.286701,0.2464621 0.203708,0.1056267 0.570887,0.2037085 0.596036,0.1534101 0.900341,0.4149618 0.304305,0.2590367 0.304305,0.6815432 0,0.2917307 -0.160955,0.5105285 -0.15844,0.216283 -0.442626,0.336999 -0.284185,0.120717 -0.656394,0.120717 z m 2.24331,1.046206 q -0.05281,0 -0.128261,-0.01257 -0.07293,-0.01006 -0.110656,-0.02012 l 0.03521,-0.248977 q 0.03521,0.005 0.09808,0.01006 0.06539,0.0075 0.09557,0.0075 0.196164,0 0.31185,-0.130776 0.115687,-0.128261 0.211254,-0.367178 L 46.586047,10.512301 45.587624,8.0627695 45.293378,8.0451651 V 7.8238522 h 0.958185 v 0.2213129 l -0.344544,0.022634 0.699147,1.7554139 0.113172,0.3093347 h 0.01509 L 47.511538,8.0677994 47.156934,8.0451651 V 7.8238522 h 0.950639 v 0.2213129 l -0.289215,0.017604 -1.116625,2.9198215 q -0.07545,0.191134 -0.171014,0.342029 -0.09557,0.150896 -0.238918,0.233888 -0.14335,0.08551 -0.359633,0.08551 z m 3.500768,-1.046206 q -0.286701,0 -0.533163,-0.07545 -0.243947,-0.07796 -0.46023,-0.223828 l -0.0025,-0.558312 h 0.246462 l 0.04275,0.399872 q 0.145866,0.113172 0.324425,0.16347 0.178559,0.0503 0.382268,0.0503 0.342029,0 0.520588,-0.14838 0.17856,-0.14838 0.17856,-0.3520886 0,-0.1911339 -0.160955,-0.3369993 -0.15844,-0.1483802 -0.565857,-0.2389173 -0.487895,-0.1056267 -0.706693,-0.281671 -0.216283,-0.1760444 -0.216283,-0.4904094 0,-0.2062234 0.115687,-0.3722081 0.115686,-0.1659847 0.326939,-0.2615517 0.213768,-0.098082 0.500469,-0.098082 0.299276,0 0.520588,0.088022 0.221313,0.085507 0.379753,0.2313726 l 0.01257,0.5583121 H 50.091845 L 50.056636,8.2488736 Q 49.943465,8.140732 49.792569,8.0828889 q -0.150895,-0.060358 -0.367178,-0.060358 -0.30682,0 -0.472805,0.1433504 -0.165985,0.1408355 -0.165985,0.3294545 0,0.1232311 0.0503,0.2162831 0.05281,0.090537 0.198679,0.1634698 0.14838,0.072933 0.430051,0.1383206 0.510529,0.1156863 0.739386,0.314365 0.228858,0.1961637 0.228858,0.5105287 0,0.3319691 -0.259037,0.5457371 -0.256522,0.213769 -0.741901,0.213769 z m 2.487255,-0.005 q -0.286701,0 -0.445141,-0.176045 -0.15844,-0.178559 -0.15844,-0.5734013 V 8.0677994 H 50.84632 V 7.8238522 h 0.47029 V 7.1247045 h 0.30179 v 0.6991477 h 0.63376 V 8.0677994 H 51.6184 v 1.7755333 q 0,0.2716113 0.09557,0.3923273 0.09808,0.118201 0.259037,0.118201 0.08551,0 0.1685,-0.01006 0.08299,-0.01258 0.171014,-0.02515 l 0.04527,0.216283 q -0.09054,0.02766 -0.206224,0.04275 -0.115686,0.01509 -0.231372,0.01509 z m 2.001876,0.005 q -0.349573,0 -0.616155,-0.1685 Q 53.039331,10.258294 52.888435,9.959019 52.73754,9.6572286 52.73754,9.2649012 V 9.1265806 q 0,-0.3898126 0.150895,-0.6941179 0.150896,-0.3068202 0.407417,-0.4828646 0.259037,-0.1760443 0.575917,-0.1760443 0.334484,0 0.570887,0.1433504 0.238917,0.1433504 0.364663,0.4049021 0.128261,0.2590367 0.128261,0.6111255 v 0.2565218 h -1.88619 l -0.005,0.1106564 q 0.0025,0.3017904 0.110657,0.5381929 0.110656,0.2364021 0.30682,0.3722081 0.198679,0.135806 0.46023,0.135806 0.256522,0 0.450171,-0.08048 0.196164,-0.08299 0.344544,-0.223828 l 0.128261,0.206224 q -0.15844,0.150895 -0.384783,0.251492 -0.223828,0.09808 -0.538193,0.09808 z M 53.06951,8.9379616 h 1.56428 V 8.862514 q 0,-0.2389174 -0.09305,-0.4275363 -0.09054,-0.1911339 -0.261552,-0.2992755 -0.1685,-0.1081415 -0.407417,-0.1081415 -0.216283,0 -0.389813,0.1182012 -0.173529,0.1156863 -0.284186,0.3193948 -0.108141,0.2011936 -0.13329,0.4577154 z m 2.333843,1.6070334 v -0.218798 l 0.409932,-0.03269 V 8.0778591 L 55.403353,8.0451651 V 7.8238522 h 0.679028 l 0.02515,0.4652601 q 0.125746,-0.2439472 0.344544,-0.3797529 0.221313,-0.1358056 0.525618,-0.1358056 0.314365,0 0.523104,0.155925 0.208738,0.1534101 0.299275,0.4728049 0.115686,-0.2942456 0.344544,-0.4627452 0.231373,-0.1684997 0.558312,-0.1684997 0.435081,0 0.671484,0.2917307 0.238917,0.2892158 0.238917,0.8953115 v 1.332907 l 0.409932,0.03269 v 0.218798 h -1.124169 v -0.218798 l 0.409932,-0.03269 V 8.9530511 q 0,-0.5054988 -0.178559,-0.7142372 -0.176045,-0.2087383 -0.49041,-0.2087383 -0.354603,0 -0.545737,0.2263428 -0.191134,0.2238278 -0.228858,0.5683718 v 1.4687128 l 0.409932,0.03269 v 0.218798 h -1.124169 v -0.218798 l 0.409932,-0.03269 V 8.9530511 q 0,-0.4954392 -0.181074,-0.7066924 -0.17856,-0.2137682 -0.492925,-0.2137682 -0.331969,0 -0.518073,0.1760444 -0.183589,0.1760444 -0.251492,0.467775 v 1.6170931 l 0.409932,0.03269 v 0.218798 z m 6.025749,0.05281 q -0.286701,0 -0.533163,-0.07545 -0.243947,-0.07796 -0.46023,-0.223828 l -0.0025,-0.558312 h 0.246462 l 0.04275,0.399872 q 0.145865,0.113172 0.324424,0.16347 0.17856,0.0503 0.382268,0.0503 0.342029,0 0.520588,-0.14838 0.17856,-0.14838 0.17856,-0.3520886 0,-0.1911339 -0.160955,-0.3369993 -0.15844,-0.1483802 -0.565857,-0.2389173 -0.487894,-0.1056267 -0.706692,-0.281671 -0.216284,-0.1760444 -0.216284,-0.4904094 0,-0.2062234 0.115687,-0.3722081 0.115686,-0.1659847 0.326939,-0.2615517 0.213768,-0.098082 0.500469,-0.098082 0.299276,0 0.520589,0.088022 0.221313,0.085507 0.379753,0.2313726 l 0.01257,0.5583121 H 62.088011 L 62.052802,8.2488736 Q 61.939631,8.140732 61.788736,8.0828889 61.63784,8.0225308 61.421557,8.0225308 q -0.30682,0 -0.472805,0.1433504 -0.165984,0.1408355 -0.165984,0.3294545 0,0.1232311 0.0503,0.2162831 0.05281,0.090537 0.198679,0.1634698 0.14838,0.072933 0.430051,0.1383206 0.510529,0.1156863 0.739386,0.314365 0.228858,0.1961637 0.228858,0.5105287 0,0.3319691 -0.259037,0.5457371 -0.256521,0.213769 -0.741901,0.213769 z"
         id="path43" />
    </g>
    <g
       id="text13"
       style="font-weight:600;font-size:2.94746px;line-height:1.2;font-family:'Roboto Flex';-inkscape-font-specification:'Roboto Flex, Semi-Bold @GRAD=0,opsz=8,slnt=0,wght=400,wdth=100,XOPQ=96,XTRA=468,YOPQ=79,YTAS=750,YTDE=-203,YTFI=738,YTLC=514,YTUC=712';font-variant-ligatures:none;font-variation-settings:'GRAD' 0, 'opsz' 8, 'slnt' 0, 'wdth' 100, 'wght' 400, 'XOPQ' 96, 'XTRA' 468, 'YOPQ' 79, 'YTAS' 750, 'YTDE' -203, 'YTFI' 738, 'YTLC' 514, 'YTUC' 712;stroke-width:0.0253632"
       aria-label="GmbH&#10;Wirthstr. 36 • 90459 Nürnberg&#10;Fon +49 160 94 91 06 15&#10;Mail hello@strong-type.systems&#10;Web https://strong-type.systems">
      <path
         d="m 10.018809,13.151973 q 0,0.486446 0.263371,0.759892 0.263372,0.272007 0.706642,0.272007 0.290717,0 0.496521,-0.08923 0.207243,-0.08923 0.312304,-0.19429 v -0.81746 h -0.839048 v 0.246102 h 0.552649 v 0.461979 q -0.109378,0.07196 -0.231709,0.105061 -0.122331,0.0331 -0.290717,0.0331 -0.320939,0 -0.49652,-0.207244 -0.175581,-0.207243 -0.175581,-0.569919 V 13.03396 q 0,-0.362676 0.175581,-0.569919 0.17702,-0.207243 0.450466,-0.207243 0.274886,0 0.40873,0.126648 0.135284,0.126649 0.149676,0.26625 l 0.0014,0.01439 h 0.295034 l -0.0014,-0.01439 q -0.02735,-0.261932 -0.241784,-0.454784 -0.213,-0.192851 -0.611656,-0.192851 -0.397216,0 -0.660588,0.273446 -0.263371,0.272007 -0.263371,0.758453 z m 2.106973,0.988724 h 0.284959 v -1.090906 q 0.06189,-0.115135 0.162629,-0.187095 0.102182,-0.0734 0.238905,-0.0734 0.158311,0 0.244663,0.08347 0.08635,0.08347 0.08635,0.277763 v 0.990163 h 0.286399 v -1.090906 q 0.06189,-0.115135 0.162628,-0.187095 0.102182,-0.0734 0.238905,-0.0734 0.158311,0 0.243223,0.08347 0.08635,0.08347 0.08779,0.277763 v 0.990163 h 0.28496 v -0.987284 q 0,-0.328136 -0.145359,-0.467737 -0.143919,-0.141041 -0.398655,-0.141041 -0.164068,0 -0.293595,0.06333 -0.129527,0.06189 -0.234588,0.204365 h -0.0072 q -0.06188,-0.139602 -0.182777,-0.202926 -0.119452,-0.06476 -0.284959,-0.06476 -0.153993,0 -0.279203,0.06189 -0.125209,0.06188 -0.215878,0.174142 h -0.0072 l -0.01295,-0.207244 h -0.259054 z m 2.733021,0 h 0.259054 l 0.01295,-0.204365 h 0.0072 q 0.06333,0.09642 0.194291,0.165506 0.130966,0.06764 0.305108,0.06764 0.310865,0 0.49652,-0.223074 0.187095,-0.224514 0.187095,-0.567041 v -0.04605 q 0,-0.342527 -0.187095,-0.565601 -0.185655,-0.223075 -0.49652,-0.223075 -0.174142,0 -0.297912,0.05901 -0.122331,0.05757 -0.19573,0.155433 v -0.828973 h -0.284959 z m 0.284959,-0.476372 v -0.614534 q 0.04893,-0.103622 0.15975,-0.184216 0.110818,-0.08203 0.269128,-0.08203 0.236028,0 0.345406,0.15975 0.110818,0.158311 0.110818,0.39002 v 0.04605 q 0,0.233149 -0.110818,0.392899 -0.109378,0.158311 -0.345406,0.158311 -0.15831,0 -0.269128,-0.08059 -0.110818,-0.08203 -0.15975,-0.185655 z m 1.544251,0.476372 h 0.295033 v -0.957061 h 1.11969 v 0.957061 h 0.295034 v -2.09546 h -0.295034 v 0.890858 h -1.11969 v -0.890858 h -0.295033 z"
         id="path34" />
      <path
         d="m 10.467836,17.690601 0.299351,-0.0029 0.414487,-1.547129 q 0.01295,-0.04893 0.02159,-0.09067 0.0086,-0.04318 0.01727,-0.09067 h 0.02015 q 0.0086,0.04749 0.01727,0.09211 0.01007,0.04317 0.02303,0.09211 l 0.40873,1.547128 h 0.30079 l 0.542575,-2.108412 h -0.289277 l -0.361237,1.555764 q -0.01151,0.04893 -0.01871,0.08491 -0.0058,0.03598 -0.01439,0.08491 h -0.01871 q -0.0072,-0.04749 -0.01439,-0.08347 -0.0072,-0.03742 -0.02015,-0.08635 l -0.405852,-1.555764 h -0.315182 l -0.39146,1.555764 q -0.01295,0.04893 -0.02015,0.08635 -0.0058,0.03598 -0.01295,0.08347 h -0.01871 q -0.0086,-0.04749 -0.01583,-0.08347 -0.0072,-0.03742 -0.01871,-0.08635 L 10.226052,15.582189 H 9.9252615 Z m 2.363149,-0.01295 h 0.284959 v -1.567278 h -0.284959 z m -0.02735,-2.013426 q 0,0.07052 0.04318,0.118013 0.04462,0.04749 0.126649,0.04749 0.08203,0 0.125209,-0.04749 0.04461,-0.04749 0.04461,-0.118013 0,-0.06908 -0.04461,-0.116575 -0.04318,-0.04749 -0.125209,-0.04749 -0.08203,0 -0.126649,0.04749 -0.04318,0.04749 -0.04318,0.116575 z m 0.751257,2.013426 h 0.28496 V 16.5925 q 0.04893,-0.103622 0.148236,-0.174142 0.0993,-0.07052 0.241784,-0.07052 0.0403,0 0.0734,0.0029 0.0331,0.0029 0.06332,0.0086 v -0.272007 q -0.01439,-0.0058 -0.05181,-0.01295 -0.03598,-0.0072 -0.06908,-0.0072 -0.14248,0 -0.246101,0.07484 -0.102183,0.0734 -0.165507,0.171264 h -0.0072 l -0.01295,-0.202926 h -0.259054 z m 0.931156,-1.342764 h 0.931156 v -0.224514 h -0.931156 z m 0.292155,0.951304 q 0,0.224514 0.105061,0.329574 0.1065,0.105061 0.28496,0.105061 0.07484,0 0.138162,-0.01295 0.06332,-0.01295 0.103622,-0.03022 v -0.236027 q -0.04318,0.01439 -0.08491,0.02303 -0.0403,0.0086 -0.08347,0.0086 -0.09211,0 -0.135283,-0.04318 -0.04318,-0.04318 -0.04318,-0.143919 v -1.496757 h -0.28496 v 0.411608 0.04318 z m 0.92396,0.39146 h 0.284959 v -1.090906 q 0.06189,-0.115135 0.168385,-0.187095 0.1065,-0.0734 0.247541,-0.0734 0.165507,0 0.254737,0.08347 0.09067,0.08347 0.09067,0.277763 v 0.990163 h 0.286399 v -0.987284 q 0,-0.329575 -0.148236,-0.469176 -0.146798,-0.139601 -0.395777,-0.139601 -0.158311,0 -0.286399,0.06189 -0.126649,0.06045 -0.217318,0.169824 v -0.846243 h -0.284959 z m 1.646433,-0.460541 v 0.0072 q 0,0.224513 0.171263,0.361236 0.172703,0.135284 0.500838,0.135284 0.328135,0 0.492203,-0.133844 0.165507,-0.133845 0.165507,-0.342527 0,-0.208683 -0.14248,-0.323818 -0.14104,-0.115135 -0.414486,-0.169824 -0.272007,-0.05469 -0.352602,-0.1065 -0.07916,-0.05325 -0.07916,-0.14248 0,-0.08635 0.07772,-0.146797 0.07772,-0.06045 0.253297,-0.06045 0.175581,0 0.259054,0.06764 0.08347,0.06764 0.08347,0.182778 v 0.0072 h 0.283521 v -0.0072 q 0,-0.21444 -0.169825,-0.345406 -0.168385,-0.132405 -0.456223,-0.132405 -0.282081,0 -0.449027,0.128087 -0.165507,0.128088 -0.165507,0.322379 0,0.19429 0.14248,0.306547 0.14248,0.112257 0.414487,0.166946 0.273446,0.05469 0.351162,0.110818 0.07772,0.05469 0.07772,0.158311 0,0.100743 -0.0993,0.166946 -0.09786,0.06476 -0.272007,0.06476 -0.174142,0 -0.280642,-0.06764 -0.1065,-0.06908 -0.1065,-0.200047 v -0.0072 z m 1.444946,-0.882223 h 0.931155 v -0.224514 h -0.931155 z m 0.292155,0.951304 q 0,0.224514 0.105061,0.329574 0.1065,0.105061 0.284959,0.105061 0.07484,0 0.138163,-0.01295 0.06332,-0.01295 0.103621,-0.03022 v -0.236027 q -0.04318,0.01439 -0.08491,0.02303 -0.0403,0.0086 -0.08347,0.0086 -0.09211,0 -0.135284,-0.04318 -0.04318,-0.04318 -0.04318,-0.143919 v -1.496757 h -0.28496 v 0.411608 0.04318 z m 0.92396,0.39146 h 0.28496 V 16.5925 q 0.04893,-0.103622 0.148236,-0.174142 0.0993,-0.07052 0.241784,-0.07052 0.0403,0 0.0734,0.0029 0.0331,0.0029 0.06332,0.0086 v -0.272007 q -0.01439,-0.0058 -0.05181,-0.01295 -0.03598,-0.0072 -0.06908,-0.0072 -0.142479,0 -0.246101,0.07484 -0.102183,0.0734 -0.165507,0.171264 h -0.0072 l -0.01295,-0.202926 h -0.259054 z m 0.896615,-0.16119 q 0,0.08059 0.05037,0.136723 0.05181,0.05613 0.146798,0.05613 0.09642,0 0.146797,-0.05613 0.05181,-0.05613 0.05181,-0.136723 0,-0.08059 -0.05181,-0.136723 -0.05037,-0.05613 -0.146797,-0.05613 -0.09499,0 -0.146798,0.05613 -0.05037,0.05613 -0.05037,0.136723 z m 1.440628,-0.392898 q 0,0.261932 0.205804,0.430317 0.207244,0.166946 0.529622,0.166946 0.322379,0 0.5325,-0.165507 0.211561,-0.166945 0.211561,-0.457662 0,-0.198608 -0.115135,-0.333892 -0.113696,-0.136723 -0.303669,-0.182777 v -0.0058 q 0.175581,-0.0734 0.257615,-0.202925 0.08347,-0.130966 0.08347,-0.274885 0,-0.246102 -0.187095,-0.401534 -0.185655,-0.156872 -0.47925,-0.156872 -0.293595,0 -0.485007,0.165507 -0.189973,0.164067 -0.189973,0.397216 v 0.01439 h 0.287838 v -0.01439 q 0,-0.152554 0.109379,-0.234588 0.109378,-0.08203 0.277763,-0.08203 0.169824,0 0.269129,0.08203 0.100743,0.08203 0.100743,0.247541 0,0.165507 -0.115135,0.259054 -0.115136,0.09211 -0.326696,0.09211 h -0.168386 v 0.240345 h 0.184217 q 0.228831,0 0.364115,0.09787 0.136723,0.09786 0.136723,0.290716 0,0.19573 -0.120892,0.287838 -0.120892,0.09211 -0.323818,0.09211 -0.202926,0 -0.325257,-0.09211 -0.122331,-0.09211 -0.122331,-0.259054 v -0.01439 h -0.287838 z m 1.725589,-0.329575 q 0,0.489325 0.231709,0.708081 0.23171,0.218757 0.554088,0.218757 0.322379,0 0.5325,-0.197169 0.211561,-0.198608 0.211561,-0.515229 0,-0.318061 -0.187095,-0.513791 -0.187094,-0.19573 -0.495081,-0.19573 -0.306547,0 -0.490763,0.19573 -0.184217,0.19573 -0.184217,0.513791 h 0.10794 q 0,-0.221636 0.152554,-0.342528 0.153993,-0.120891 0.352601,-0.120891 0.214439,0 0.332453,0.120891 0.118013,0.120892 0.118013,0.342528 0,0.221635 -0.118013,0.343966 -0.118014,0.122331 -0.332453,0.122331 -0.214439,0 -0.35548,-0.151115 -0.14104,-0.151115 -0.14104,-0.51523 v -0.07196 q 0,-0.492203 0.250419,-0.719595 0.250419,-0.228831 0.680736,-0.228831 h 0.03022 v -0.24898 h -0.03022 q -0.58575,0 -0.903811,0.332453 -0.316621,0.332453 -0.316621,0.879345 z m 2.482602,-0.182777 q 0,0.181338 0.129527,0.3195 0.129527,0.136723 0.331014,0.136723 0.200047,0 0.329574,-0.136723 0.129527,-0.138162 0.129527,-0.3195 0,-0.185655 -0.129527,-0.322378 -0.129527,-0.138162 -0.329574,-0.138162 -0.201487,0 -0.331014,0.138162 -0.129527,0.136723 -0.129527,0.322378 z M 28.42748,16.23702 q 0,0.312304 0.188534,0.503716 0.188534,0.191412 0.493642,0.191412 0.306548,0 0.490764,-0.191412 0.184216,-0.191412 0.184216,-0.503716 h -0.107939 q 0,0.214439 -0.153993,0.332453 -0.152554,0.116574 -0.351163,0.116574 -0.214439,0 -0.332452,-0.116574 -0.118014,-0.118014 -0.118014,-0.332453 0,-0.214439 0.118014,-0.332453 0.118013,-0.119453 0.332452,-0.119453 0.21444,0 0.35548,0.151115 0.141041,0.151115 0.141041,0.51523 v 0.07196 q 0,0.492202 -0.250419,0.721034 -0.24898,0.227392 -0.680737,0.227392 h -0.03022 v 0.248979 h 0.03022 q 0.58575,0 0.903811,-0.332452 0.318061,-0.332453 0.318061,-0.879345 v -0.04318 q 0,-0.489324 -0.233149,-0.708081 -0.231709,-0.218757 -0.554088,-0.218757 -0.322378,0 -0.533939,0.194291 -0.210122,0.192851 -0.210122,0.503716 z m 1.773082,0.732547 q 0,0.339649 0.189973,0.545453 0.191412,0.205804 0.529622,0.205804 0.335331,0 0.526743,-0.205804 0.192852,-0.205804 0.192852,-0.545453 V 16.29027 q 0,-0.33821 -0.192852,-0.544014 -0.191412,-0.207243 -0.526743,-0.207243 -0.33821,0 -0.529622,0.207243 -0.189973,0.205804 -0.189973,0.544014 z m 0.297912,0.01439 v -0.708081 q 0,-0.213 0.102183,-0.349723 0.103621,-0.138162 0.3195,-0.138162 0.214439,0 0.318061,0.138162 0.103621,0.136723 0.103621,0.349723 v 0.708081 q 0,0.21444 -0.103621,0.351163 -0.103622,0.136723 -0.318061,0.136723 -0.215879,0 -0.3195,-0.136723 -0.102183,-0.136723 -0.102183,-0.351163 z m 2.364589,0.69369 h 0.280642 v -2.09546 H 32.86738 l -1.031898,1.398892 v 0.208682 h 1.613331 v -0.246101 h -0.404412 -0.115135 -0.757014 l 0.673541,-0.939791 h 0.01727 v 1.026142 0.07484 z m 0.755575,-0.5325 q 0,0.24754 0.200047,0.411608 0.200047,0.164067 0.523865,0.164067 0.322378,0 0.533939,-0.189973 0.213,-0.191412 0.213,-0.522425 0,-0.331014 -0.202926,-0.51523 -0.202925,-0.185656 -0.492202,-0.185656 -0.126649,0 -0.233149,0.03598 -0.105061,0.03454 -0.179899,0.08059 l 0.06188,-0.574237 h 0.931156 v -0.267689 h -1.172939 l -0.1065,1.050608 0.214439,0.103622 q 0.08923,-0.08635 0.192851,-0.133845 0.105061,-0.04749 0.240345,-0.04749 0.198608,0 0.325257,0.116574 0.128088,0.115135 0.128088,0.336771 0,0.221635 -0.128088,0.343966 -0.126649,0.122331 -0.325257,0.122331 -0.200047,0 -0.3195,-0.08779 -0.119453,-0.08923 -0.119453,-0.241783 v -0.01439 h -0.284959 z m 1.676656,-0.908129 q 0,0.312304 0.188533,0.503716 0.188534,0.191412 0.493642,0.191412 0.306548,0 0.490764,-0.191412 0.184216,-0.191412 0.184216,-0.503716 H 36.54451 q 0,0.214439 -0.153993,0.332453 -0.152554,0.116574 -0.351162,0.116574 -0.21444,0 -0.332453,-0.116574 -0.118014,-0.118014 -0.118014,-0.332453 0,-0.214439 0.118014,-0.332453 0.118013,-0.119453 0.332453,-0.119453 0.214439,0 0.355479,0.151115 0.141041,0.151115 0.141041,0.51523 v 0.07196 q 0,0.492202 -0.250419,0.721034 -0.24898,0.227392 -0.680737,0.227392 h -0.03022 v 0.248979 h 0.03022 q 0.58575,0 0.903811,-0.332452 0.318061,-0.332453 0.318061,-0.879345 v -0.04318 q 0,-0.489324 -0.233149,-0.708081 -0.231709,-0.218757 -0.554087,-0.218757 -0.322379,0 -0.53394,0.194291 -0.210121,0.192851 -0.210121,0.503716 z m 2.597737,1.440629 h 0.280642 v -1.452143 q 0,-0.04317 -0.0029,-0.09642 -0.0029,-0.05469 -0.0058,-0.09786 h 0.01439 q 0.01727,0.03598 0.04174,0.07916 0.02591,0.04318 0.05613,0.08635 l 1.007432,1.480926 h 0.310865 v -2.09546 h -0.282081 v 1.42048 q 0,0.04317 0.0029,0.119452 0.0029,0.07484 0.0058,0.118014 h -0.01439 q -0.01727,-0.03598 -0.04605,-0.08923 -0.02878,-0.05469 -0.05757,-0.09787 l -1.001676,-1.470851 h -0.309426 z m 2.145831,-0.579994 q 0,0.328135 0.146797,0.469176 0.148237,0.139601 0.395777,0.139601 0.158311,0 0.287838,-0.06189 0.130967,-0.06189 0.223075,-0.175581 h 0.0072 l 0.01151,0.208683 h 0.260493 v -1.567278 h -0.286398 v 1.090906 q -0.06188,0.115135 -0.168385,0.188534 -0.1065,0.07196 -0.246102,0.07196 -0.166946,0 -0.257615,-0.08347 -0.08923,-0.08347 -0.08923,-0.277763 v -0.990163 h -0.284959 z m 0.182777,-1.421919 q 0,0.06476 0.04174,0.110818 0.04317,0.04605 0.122331,0.04605 0.08203,0 0.12377,-0.04605 0.04318,-0.04605 0.04318,-0.110818 0,-0.06908 -0.04318,-0.115135 -0.04174,-0.04749 -0.12377,-0.04749 -0.07916,0 -0.122331,0.04749 -0.04174,0.04605 -0.04174,0.115135 z m 0.650514,0 q 0,0.06476 0.04174,0.110818 0.04174,0.04605 0.12377,0.04605 0.07916,0 0.122332,-0.04605 0.04318,-0.04605 0.04318,-0.110818 0,-0.06764 -0.04318,-0.115135 -0.04318,-0.04749 -0.122332,-0.04749 -0.08203,0 -0.12377,0.04749 -0.04174,0.04749 -0.04174,0.115135 z m 0.925398,2.001913 H 42.08251 V 16.5925 q 0.04893,-0.103622 0.148237,-0.174142 0.0993,-0.07052 0.241784,-0.07052 0.0403,0 0.0734,0.0029 0.0331,0.0029 0.06332,0.0086 v -0.272007 q -0.01439,-0.0058 -0.05181,-0.01295 -0.03598,-0.0072 -0.06908,-0.0072 -0.14248,0 -0.246102,0.07484 -0.102182,0.0734 -0.165506,0.171264 h -0.0072 l -0.01295,-0.202926 h -0.259054 z m 1.067881,0 h 0.284959 v -1.090906 q 0.06189,-0.115135 0.168385,-0.187095 0.1065,-0.0734 0.247541,-0.0734 0.165507,0 0.254736,0.08347 0.09067,0.08347 0.09067,0.277763 v 0.990163 h 0.286399 v -0.987284 q 0,-0.329575 -0.148237,-0.469176 -0.146797,-0.139601 -0.395777,-0.139601 -0.158311,0 -0.287838,0.06189 -0.129527,0.06045 -0.221635,0.174142 h -0.0072 l -0.01295,-0.207244 h -0.259054 z m 1.744297,0 h 0.259054 l 0.01295,-0.204365 h 0.0072 q 0.06332,0.09642 0.194291,0.165506 0.130966,0.06764 0.305108,0.06764 0.310865,0 0.49652,-0.223074 0.187095,-0.224514 0.187095,-0.567041 v -0.04605 q 0,-0.342527 -0.187095,-0.565601 -0.185655,-0.223074 -0.49652,-0.223074 -0.174142,0 -0.297912,0.05901 -0.122331,0.05757 -0.19573,0.155433 v -0.828973 h -0.284959 z m 0.284959,-0.476372 v -0.614534 q 0.04893,-0.103622 0.15975,-0.184216 0.110818,-0.08203 0.269129,-0.08203 0.236027,0 0.345405,0.15975 0.110818,0.158311 0.110818,0.39002 v 0.04605 q 0,0.233149 -0.110818,0.392899 -0.109378,0.158311 -0.345405,0.158311 -0.158311,0 -0.269129,-0.08059 -0.110818,-0.08203 -0.15975,-0.185655 z m 1.421918,-0.28496 q 0,0.35548 0.202926,0.579994 0.202925,0.224513 0.584311,0.224513 0.233148,0 0.395777,-0.09211 0.164067,-0.09355 0.240344,-0.202926 l -0.184216,-0.155432 q -0.06908,0.08779 -0.182777,0.151115 -0.112257,0.06332 -0.269128,0.06332 -0.254737,0 -0.377068,-0.164067 -0.120892,-0.165507 -0.120892,-0.404413 v -0.04605 q 0,-0.238905 0.115135,-0.402973 0.116575,-0.164067 0.336771,-0.164067 0.223074,0 0.315182,0.125209 0.09355,0.12377 0.09355,0.312304 v -0.0043 h -0.972892 v 0.228831 h 1.262169 v -0.120892 q 0,-0.356919 -0.181337,-0.567041 -0.179899,-0.210121 -0.516669,-0.210121 -0.333892,0 -0.538257,0.224513 -0.202926,0.224514 -0.202926,0.578554 z m 1.763006,0.761332 h 0.284959 V 16.5925 q 0.04893,-0.103622 0.148237,-0.174142 0.0993,-0.07052 0.241783,-0.07052 0.0403,0 0.0734,0.0029 0.0331,0.0029 0.06332,0.0086 v -0.272007 q -0.01439,-0.0058 -0.05181,-0.01295 -0.03598,-0.0072 -0.06908,-0.0072 -0.142479,0 -0.246101,0.07484 -0.102182,0.0734 -0.165507,0.171264 h -0.0072 l -0.01295,-0.202926 h -0.259054 z m 1.011752,0.408729 q 0.118013,0.09499 0.289277,0.156872 0.171263,0.06189 0.374189,0.06189 0.326696,0 0.531061,-0.174142 0.204365,-0.172702 0.204365,-0.49652 v -1.524102 h -0.259054 l -0.01295,0.204365 h -0.0072 q -0.06332,-0.09642 -0.19429,-0.164067 -0.130967,-0.06908 -0.305109,-0.06908 -0.310865,0 -0.497959,0.223074 -0.185656,0.223074 -0.185656,0.565601 v 0.04605 q 0,0.342527 0.185656,0.567041 0.187094,0.223074 0.497959,0.223074 0.174142,0 0.296473,-0.05757 0.123771,-0.05901 0.197169,-0.156872 v 0.14248 q 0,0.200047 -0.12377,0.309426 -0.122331,0.110817 -0.335331,0.110817 -0.15975,0 -0.289277,-0.05613 -0.128088,-0.05613 -0.200047,-0.130966 z m 0.228831,-1.170061 v -0.04605 q 0,-0.231709 0.109378,-0.39002 0.110818,-0.15975 0.346845,-0.15975 0.158311,0 0.269128,0.08203 0.110818,0.08059 0.15975,0.184216 v 0.614534 q -0.04893,0.103622 -0.15975,0.185655 -0.110817,0.08059 -0.269128,0.08059 -0.236027,0 -0.346845,-0.158311 -0.109378,-0.15975 -0.109378,-0.392899 z"
         id="path35" />
      <path
         style="-inkscape-font-specification:'Roboto Flex, Semi-Bold @GRAD=0,opsz=8,slnt=0,wght=800,wdth=100,XOPQ=96,XTRA=468,YOPQ=79,YTAS=750,YTDE=-203,YTFI=738,YTLC=514,YTUC=712';font-variation-settings:'GRAD' 0, 'opsz' 8, 'slnt' 0, 'wdth' 100, 'wght' 800, 'XOPQ' 96, 'XTRA' 468, 'YOPQ' 79, 'YTAS' 750, 'YTDE' -203, 'YTFI' 738, 'YTLC' 514, 'YTUC' 712"
         d="m 10.096525,21.214601 h 0.438953 v -0.847683 h 0.92252 v -0.307986 h -0.92252 v -0.631805 h 1.054926 v -0.307986 h -1.493879 z m 1.66946,-0.774284 q 0,0.361236 0.231709,0.590067 0.233149,0.227392 0.620291,0.227392 0.385703,0 0.617412,-0.227392 0.233149,-0.228831 0.233149,-0.590067 v -0.04605 q 0,-0.359798 -0.233149,-0.58719 -0.231709,-0.228831 -0.618851,-0.228831 -0.385703,0 -0.618852,0.228831 -0.231709,0.227392 -0.231709,0.58719 z m 0.437513,-0.04605 q 0,-0.215879 0.105061,-0.362676 0.105061,-0.148237 0.309426,-0.148237 0.201486,0 0.306547,0.148237 0.105061,0.146797 0.105061,0.362676 v 0.04605 q 0,0.217317 -0.105061,0.365554 -0.105061,0.146797 -0.306547,0.146797 -0.204365,0 -0.309426,-0.146797 -0.105061,-0.148237 -0.105061,-0.364115 z m 1.594622,0.820338 h 0.427439 v -1.069318 q 0.05325,-0.107939 0.143919,-0.175581 0.09067,-0.06908 0.208683,-0.06908 0.139601,0 0.214439,0.07772 0.07628,0.07772 0.07628,0.261932 v 0.974332 h 0.426 v -0.971453 q 0,-0.352602 -0.161189,-0.500838 -0.15975,-0.149676 -0.427439,-0.149676 -0.151115,0 -0.279203,0.05613 -0.126649,0.05613 -0.207243,0.164067 h -0.0072 l -0.01151,-0.191412 H 13.79812 Z"
         id="path36" />
      <path
         d="m 16.310945,20.372675 h 1.485243 v -0.253297 l -1.485243,-0.0029 z m 0.604459,0.637561 h 0.276325 v -1.531298 h -0.276325 z m 2.065237,0.204365 h 0.280642 v -2.09546 h -0.276324 l -1.031899,1.398892 v 0.208682 h 1.613331 V 20.480614 H 19.161979 19.046844 18.28983 l 0.673541,-0.939791 h 0.01727 v 1.026142 0.07484 z m 0.715278,-1.440629 q 0,0.312304 0.188534,0.503716 0.188533,0.191413 0.493642,0.191413 0.306547,0 0.490763,-0.191413 0.184216,-0.191412 0.184216,-0.503716 h -0.107939 q 0,0.214439 -0.153993,0.332453 -0.152554,0.116574 -0.351162,0.116574 -0.214439,0 -0.332453,-0.116574 -0.118014,-0.118014 -0.118014,-0.332453 0,-0.214439 0.118014,-0.332453 0.118014,-0.119452 0.332453,-0.119452 0.214439,0 0.35548,0.151114 0.14104,0.151115 0.14104,0.51523 v 0.07196 q 0,0.492203 -0.250419,0.721034 -0.24898,0.227392 -0.680736,0.227392 h -0.03022 v 0.248979 h 0.03022 q 0.58575,0 0.903811,-0.332452 0.31806,-0.332453 0.31806,-0.879345 v -0.04318 q 0,-0.489324 -0.233148,-0.708081 -0.23171,-0.218757 -0.554088,-0.218757 -0.322379,0 -0.53394,0.194291 -0.210121,0.192851 -0.210121,0.503716 z m 3.150385,1.440629 h 0.296473 v -2.124244 h -0.06476 l -0.792994,0.287838 v 0.284959 l 0.561284,-0.224513 z m 1.023264,-0.883663 q 0,0.489325 0.23171,0.708082 0.231709,0.218756 0.554087,0.218756 0.322379,0 0.532501,-0.197169 0.21156,-0.198608 0.21156,-0.515229 0,-0.318061 -0.187094,-0.513791 -0.187095,-0.19573 -0.495081,-0.19573 -0.306548,0 -0.490764,0.19573 -0.184216,0.19573 -0.184216,0.513791 h 0.107939 q 0,-0.221636 0.152554,-0.342528 0.153993,-0.120891 0.352601,-0.120891 0.21444,0 0.332453,0.120891 0.118014,0.120892 0.118014,0.342528 0,0.221635 -0.118014,0.343966 -0.118013,0.122331 -0.332453,0.122331 -0.214439,0 -0.355479,-0.151115 -0.141041,-0.151115 -0.141041,-0.51523 v -0.07196 q 0,-0.492203 0.250419,-0.719595 0.250419,-0.228831 0.680737,-0.228831 h 0.03022 v -0.24898 h -0.03022 q -0.58575,0 -0.903811,0.332453 -0.316622,0.332453 -0.316622,0.879345 z m 1.752933,0.175581 q 0,0.339649 0.189973,0.545453 0.191412,0.205804 0.529622,0.205804 0.335331,0 0.526743,-0.205804 0.192851,-0.205804 0.192851,-0.545453 v -0.679297 q 0,-0.338209 -0.192851,-0.544014 -0.191412,-0.207243 -0.526743,-0.207243 -0.33821,0 -0.529622,0.207243 -0.189973,0.205805 -0.189973,0.544014 z m 0.297912,0.01439 V 19.81283 q 0,-0.213 0.102183,-0.349723 0.103621,-0.138162 0.3195,-0.138162 0.214439,0 0.318061,0.138162 0.103621,0.136723 0.103621,0.349723 v 0.708081 q 0,0.21444 -0.103621,0.351163 -0.103622,0.136723 -0.318061,0.136723 -0.215879,0 -0.3195,-0.136723 -0.102183,-0.136723 -0.102183,-0.351163 z m 2.082507,-0.746939 q 0,0.312304 0.188534,0.503716 0.188534,0.191413 0.493642,0.191413 0.306547,0 0.490763,-0.191413 0.184217,-0.191412 0.184217,-0.503716 h -0.10794 q 0,0.214439 -0.153993,0.332453 -0.152554,0.116574 -0.351162,0.116574 -0.214439,0 -0.332453,-0.116574 -0.118013,-0.118014 -0.118013,-0.332453 0,-0.214439 0.118013,-0.332453 0.118014,-0.119452 0.332453,-0.119452 0.214439,0 0.35548,0.151114 0.14104,0.151115 0.14104,0.51523 v 0.07196 q 0,0.492203 -0.250419,0.721034 -0.24898,0.227392 -0.680736,0.227392 h -0.03022 v 0.248979 h 0.03022 q 0.58575,0 0.903811,-0.332452 0.31806,-0.332453 0.31806,-0.879345 v -0.04318 q 0,-0.489324 -0.233148,-0.708081 -0.23171,-0.218757 -0.554088,-0.218757 -0.322379,0 -0.533939,0.194291 -0.210122,0.192851 -0.210122,0.503716 z m 2.718629,1.440629 h 0.280642 v -2.09546 h -0.276324 l -1.031899,1.398892 v 0.208682 h 1.613331 v -0.246101 h -0.404412 -0.115135 -0.757014 l 0.673541,-0.939791 h 0.01727 v 1.026142 0.07484 z m 1.434872,-1.440629 q 0,0.312304 0.188534,0.503716 0.188534,0.191413 0.493642,0.191413 0.306548,0 0.490764,-0.191413 0.184216,-0.191412 0.184216,-0.503716 h -0.107939 q 0,0.214439 -0.153993,0.332453 -0.152554,0.116574 -0.351163,0.116574 -0.214439,0 -0.332452,-0.116574 -0.118014,-0.118014 -0.118014,-0.332453 0,-0.214439 0.118014,-0.332453 0.118013,-0.119452 0.332452,-0.119452 0.21444,0 0.35548,0.151114 0.141041,0.151115 0.141041,0.51523 v 0.07196 q 0,0.492203 -0.250419,0.721034 -0.24898,0.227392 -0.680737,0.227392 h -0.03022 v 0.248979 h 0.03022 q 0.58575,0 0.903811,-0.332452 0.318061,-0.332453 0.318061,-0.879345 v -0.04318 q 0,-0.489324 -0.233149,-0.708081 -0.231709,-0.218757 -0.554088,-0.218757 -0.322378,0 -0.533939,0.194291 -0.210122,0.192851 -0.210122,0.503716 z m 2.430792,1.440629 h 0.296473 v -2.124244 h -0.06476 l -0.792993,0.287838 v 0.284959 l 0.561284,-0.224513 z m 1.778836,-0.708082 q 0,0.339649 0.189973,0.545453 0.191413,0.205804 0.529622,0.205804 0.335331,0 0.526743,-0.205804 0.192852,-0.205804 0.192852,-0.545453 v -0.679297 q 0,-0.338209 -0.192852,-0.544014 -0.191412,-0.207243 -0.526743,-0.207243 -0.338209,0 -0.529622,0.207243 -0.189973,0.205805 -0.189973,0.544014 z m 0.297913,0.01439 V 19.81283 q 0,-0.213 0.102182,-0.349723 0.103622,-0.138162 0.3195,-0.138162 0.214439,0 0.318061,0.138162 0.103622,0.136723 0.103622,0.349723 v 0.708081 q 0,0.21444 -0.103622,0.351163 -0.103622,0.136723 -0.318061,0.136723 -0.215878,0 -0.3195,-0.136723 -0.102182,-0.136723 -0.102182,-0.351163 z m 1.383061,-0.189973 q 0,0.489325 0.231709,0.708082 0.23171,0.218756 0.554088,0.218756 0.322379,0 0.5325,-0.197169 0.211561,-0.198608 0.211561,-0.515229 0,-0.318061 -0.187094,-0.513791 -0.187095,-0.19573 -0.495081,-0.19573 -0.306548,0 -0.490764,0.19573 -0.184216,0.19573 -0.184216,0.513791 h 0.107939 q 0,-0.221636 0.152554,-0.342528 0.153993,-0.120891 0.352601,-0.120891 0.21444,0 0.332453,0.120891 0.118014,0.120892 0.118014,0.342528 0,0.221635 -0.118014,0.343966 -0.118013,0.122331 -0.332453,0.122331 -0.214439,0 -0.355479,-0.151115 Q 38.3363,20.709445 38.3363,20.34533 v -0.07196 q 0,-0.492203 0.250419,-0.719595 0.250419,-0.228831 0.680737,-0.228831 h 0.03022 v -0.24898 h -0.03022 q -0.58575,0 -0.903811,0.332453 -0.316622,0.332453 -0.316622,0.879345 z m 3.130238,0.883663 h 0.296473 v -2.124244 h -0.06476 l -0.792993,0.287838 v 0.284959 l 0.561284,-0.224513 z m 1.04341,-0.5325 q 0,0.24754 0.200048,0.411608 0.200047,0.164067 0.523865,0.164067 0.322378,0 0.533939,-0.189973 0.213,-0.191412 0.213,-0.522425 0,-0.331014 -0.202926,-0.51523 -0.202926,-0.185656 -0.492203,-0.185656 -0.126648,0 -0.233148,0.03598 -0.105061,0.03454 -0.179899,0.08059 l 0.06188,-0.574237 h 0.931156 v -0.267689 h -1.17294 l -0.1065,1.050608 0.214439,0.103622 q 0.08923,-0.08635 0.192852,-0.133845 0.105061,-0.04749 0.240345,-0.04749 0.198608,0 0.325256,0.116574 0.128088,0.115135 0.128088,0.336771 0,0.221635 -0.128088,0.343966 -0.126648,0.122331 -0.325256,0.122331 -0.200048,0 -0.319501,-0.08779 -0.119452,-0.08923 -0.119452,-0.241783 v -0.01439 h -0.28496 z"
         id="path37" />
      <path
         style="-inkscape-font-specification:'Roboto Flex, Semi-Bold @GRAD=0,opsz=8,slnt=0,wght=800,wdth=100,XOPQ=96,XTRA=468,YOPQ=79,YTAS=750,YTDE=-203,YTFI=738,YTLC=514,YTUC=712';font-variation-settings:'GRAD' 0, 'opsz' 8, 'slnt' 0, 'wdth' 100, 'wght' 800, 'XOPQ' 96, 'XTRA' 468, 'YOPQ' 79, 'YTAS' 750, 'YTDE' -203, 'YTFI' 738, 'YTLC' 514, 'YTUC' 712"
         d="m 10.096525,24.751553 h 0.33821 v -1.388818 q 0,-0.04893 -0.0043,-0.107939 -0.0043,-0.06045 -0.0086,-0.109379 h 0.01727 q 0.0072,0.04893 0.02159,0.109379 0.01583,0.05901 0.03166,0.107939 l 0.482129,1.388818 h 0.352601 l 0.470615,-1.383061 q 0.01583,-0.04893 0.0331,-0.109379 0.01727,-0.06189 0.03022,-0.109378 h 0.01583 q -0.0058,0.04749 -0.0086,0.109378 -0.0014,0.06045 -0.0014,0.109379 v 1.383061 h 0.436074 v -2.09546 h -0.58575 l -0.453344,1.351399 q -0.01583,0.04749 -0.03166,0.09642 -0.01583,0.04749 -0.02878,0.100744 h -0.01151 q -0.01295,-0.05325 -0.03022,-0.100744 -0.01583,-0.04893 -0.0331,-0.09642 l -0.470615,-1.351399 h -0.561284 z m 2.577588,-0.467737 q 0,0.240345 0.174142,0.368433 0.175581,0.128088 0.421683,0.128088 0.197169,0 0.328135,-0.07052 0.132405,-0.07052 0.184216,-0.165507 0.0058,0.05757 0.02015,0.115136 0.01583,0.05613 0.03598,0.09211 h 0.417365 v -0.02303 q -0.02591,-0.06189 -0.0403,-0.145358 -0.01439,-0.08347 -0.01439,-0.177021 v -0.769966 q 0,-0.259054 -0.187094,-0.39002 -0.187095,-0.130967 -0.522426,-0.130967 -0.335331,0 -0.535379,0.146798 -0.198608,0.146797 -0.198608,0.343966 v 0.01007 h 0.42744 v -0.01007 q 0,-0.08347 0.06908,-0.146797 0.07052,-0.06333 0.228831,-0.06333 0.158311,0 0.224513,0.06764 0.06764,0.0662 0.06764,0.172703 v 0.119453 h -0.3195 q -0.338209,0 -0.559844,0.139601 -0.221636,0.139601 -0.221636,0.388581 z m 0.426,-0.01295 q 0,-0.119452 0.09787,-0.189973 0.09786,-0.07052 0.28496,-0.07052 h 0.292155 v 0.188534 q 0,0.109378 -0.128088,0.205804 -0.126648,0.09499 -0.280642,0.09499 -0.135283,0 -0.201486,-0.06045 -0.06476,-0.06189 -0.06476,-0.168386 z m 1.554325,0.48069 h 0.426 V 23.15837 h -0.426 z m -0.0331,-2.003352 q 0,0.09355 0.06333,0.155432 0.06476,0.06189 0.182777,0.06189 0.118013,0 0.181338,-0.06189 0.06476,-0.06189 0.06476,-0.153993 0,-0.09211 -0.06332,-0.153993 -0.06332,-0.06332 -0.182777,-0.06332 -0.118014,0 -0.182777,0.06188 -0.06333,0.06189 -0.06333,0.153993 z m 0.900933,2.003352 h 0.426 v -2.210595 h -0.426 z"
         id="path38" />
      <path
         d="m 17.10106,24.751553 h 0.28496 v -1.090906 q 0.06189,-0.115135 0.168385,-0.187094 0.1065,-0.0734 0.24754,-0.0734 0.165507,0 0.254737,0.08347 0.09067,0.08347 0.09067,0.277763 v 0.990163 h 0.286399 v -0.987284 q 0,-0.329575 -0.148237,-0.469176 -0.146797,-0.139601 -0.395777,-0.139601 -0.158311,0 -0.286399,0.06189 -0.126648,0.06045 -0.217317,0.169824 v -0.846243 h -0.28496 z m 1.653629,-0.761331 q 0,0.355479 0.202925,0.579993 0.202926,0.224513 0.584311,0.224513 0.233149,0 0.395777,-0.09211 0.164068,-0.09355 0.240345,-0.202925 l -0.184216,-0.155433 q -0.06908,0.08779 -0.182777,0.151115 -0.112257,0.06332 -0.269129,0.06332 -0.254736,0 -0.377067,-0.164067 -0.120892,-0.165507 -0.120892,-0.404412 v -0.04605 q 0,-0.238905 0.115135,-0.402973 0.116574,-0.164067 0.33677,-0.164067 0.223075,0 0.315183,0.125209 0.09355,0.123771 0.09355,0.312304 v -0.0043 h -0.972892 v 0.228831 h 1.262169 v -0.120892 q 0,-0.356919 -0.181338,-0.567041 -0.179898,-0.210121 -0.516669,-0.210121 -0.333892,0 -0.538257,0.224513 -0.202925,0.224514 -0.202925,0.578554 z m 1.774521,0.761331 h 0.284959 V 22.540958 H 20.52921 Z m 0.733986,0 h 0.284959 V 22.540958 H 21.263196 Z M 21.895,23.990222 q 0,0.355479 0.210122,0.579993 0.21156,0.224513 0.564162,0.224513 0.351162,0 0.561284,-0.224513 0.211561,-0.224514 0.211561,-0.579993 v -0.04605 q 0,-0.35404 -0.211561,-0.578554 -0.210122,-0.224513 -0.562723,-0.224513 -0.351163,0 -0.562723,0.224513 Q 21.895,23.590127 21.895,23.944167 Z m 0.292155,-0.04605 q 0,-0.236027 0.120892,-0.400094 0.120892,-0.164068 0.359798,-0.164068 0.240344,0 0.361236,0.164068 0.120892,0.164067 0.120892,0.400094 v 0.04605 q 0,0.237466 -0.120892,0.401533 -0.120892,0.164068 -0.361236,0.164068 -0.238906,0 -0.359798,-0.164068 -0.120892,-0.164067 -0.120892,-0.401533 z m 2.30846,0.23171 q 0,0.259054 0.126649,0.417365 0.128088,0.158311 0.342527,0.158311 0.12377,0 0.233149,-0.07052 0.109378,-0.07196 0.185655,-0.188533 0.05901,0.115135 0.187095,0.187094 0.129527,0.07196 0.30079,0.07196 0.309426,0 0.522426,-0.259054 0.213,-0.259054 0.213,-0.676419 0,-0.503717 -0.379946,-0.85344 -0.379946,-0.349723 -0.991601,-0.349723 -0.611656,0 -1.059244,0.436075 -0.447588,0.436074 -0.447588,1.040534 0,0.604459 0.402973,0.954182 0.402973,0.349723 0.954183,0.349723 0.208682,0 0.351162,-0.0331 0.14248,-0.0331 0.247541,-0.09643 v -0.238905 q -0.0993,0.05181 -0.244662,0.09067 -0.145359,0.03886 -0.354041,0.03886 -0.459101,0 -0.765649,-0.277764 -0.306547,-0.276324 -0.306547,-0.787236 0,-0.512352 0.351162,-0.875028 0.351162,-0.362675 0.87071,-0.362675 0.519547,0 0.805946,0.290716 0.287838,0.290716 0.287838,0.673541 0,0.326696 -0.135284,0.528182 -0.133845,0.200047 -0.348284,0.200047 -0.119453,0 -0.182777,-0.06476 -0.06189,-0.06476 -0.0259,-0.23171 l 0.179898,-0.857756 h -0.148236 q -0.07484,-0.05613 -0.187095,-0.103622 -0.112257,-0.04893 -0.246101,-0.04893 -0.289277,0 -0.51523,0.26769 -0.224514,0.267689 -0.224514,0.670662 z m 0.286399,0 q 0,-0.310865 0.139601,-0.516669 0.141041,-0.205804 0.35548,-0.205804 0.06333,0 0.12521,0.01583 0.06332,0.01439 0.110817,0.04462 l -0.146797,0.667784 q -0.0403,0.185655 -0.129527,0.260493 -0.08779,0.0734 -0.197169,0.0734 -0.12521,0 -0.191412,-0.08635 -0.0662,-0.08635 -0.0662,-0.253297 z m 2.104094,0.115135 v 0.0072 q 0,0.224514 0.171264,0.361237 0.172703,0.135283 0.500838,0.135283 0.328135,0 0.492203,-0.133844 0.165506,-0.133845 0.165506,-0.342527 0,-0.208683 -0.142479,-0.323818 -0.141041,-0.115135 -0.414487,-0.169824 -0.272007,-0.05469 -0.352601,-0.1065 -0.07916,-0.05325 -0.07916,-0.14248 0,-0.08635 0.07772,-0.146797 0.07772,-0.06045 0.253298,-0.06045 0.175581,0 0.259054,0.06764 0.08347,0.06764 0.08347,0.182777 v 0.0072 h 0.28352 v -0.0072 q 0,-0.21444 -0.169824,-0.345406 Q 27.846048,23.1411 27.55821,23.1411 q -0.282081,0 -0.449027,0.128088 -0.165507,0.128087 -0.165507,0.322378 0,0.194291 0.14248,0.306547 0.142479,0.112257 0.414486,0.166946 0.273446,0.05469 0.351162,0.110818 0.07772,0.05469 0.07772,0.158311 0,0.100743 -0.0993,0.166946 -0.09787,0.06476 -0.272007,0.06476 -0.174142,0 -0.280642,-0.06764 -0.1065,-0.06908 -0.1065,-0.200047 v -0.0072 z m 1.444947,-0.882223 h 0.931155 v -0.224514 h -0.931155 z m 0.292155,0.951304 q 0,0.224514 0.105061,0.329575 0.1065,0.10506 0.284959,0.10506 0.07484,0 0.138163,-0.01295 0.06332,-0.01295 0.103621,-0.03022 v -0.236027 q -0.04317,0.01439 -0.08491,0.02303 -0.0403,0.0086 -0.08347,0.0086 -0.09211,0 -0.135284,-0.04318 -0.04318,-0.04318 -0.04318,-0.143919 v -1.496757 h -0.28496 v 0.411608 0.04318 z m 0.923959,0.39146 h 0.28496 v -1.085149 q 0.04893,-0.103622 0.148236,-0.174142 0.09931,-0.07052 0.241784,-0.07052 0.0403,0 0.0734,0.0029 0.0331,0.0029 0.06332,0.0086 v -0.272007 q -0.01439,-0.0058 -0.05181,-0.01295 -0.03598,-0.0072 -0.06908,-0.0072 -0.142479,0 -0.246101,0.07484 -0.102182,0.0734 -0.165507,0.171263 h -0.0072 l -0.01295,-0.202926 h -0.259055 z m 0.946988,-0.761331 q 0,0.355479 0.210122,0.579993 0.211561,0.224513 0.564162,0.224513 0.351162,0 0.561284,-0.224513 0.211561,-0.224514 0.211561,-0.579993 v -0.04605 q 0,-0.35404 -0.211561,-0.578554 -0.210122,-0.224513 -0.562723,-0.224513 -0.351162,0 -0.562723,0.224513 -0.210122,0.224514 -0.210122,0.578554 z m 0.292156,-0.04605 q 0,-0.236027 0.120892,-0.400094 0.120892,-0.164068 0.359797,-0.164068 0.240345,0 0.361237,0.164068 0.120891,0.164067 0.120891,0.400094 v 0.04605 q 0,0.237466 -0.120891,0.401533 -0.120892,0.164068 -0.361237,0.164068 -0.238905,0 -0.359797,-0.164068 -0.120892,-0.164067 -0.120892,-0.401533 z m 1.590303,0.807386 h 0.28496 v -1.090906 q 0.06189,-0.115135 0.168385,-0.187094 0.1065,-0.0734 0.24754,-0.0734 0.165507,0 0.254737,0.08347 0.09067,0.08347 0.09067,0.277763 v 0.990163 h 0.286399 v -0.987284 q 0,-0.329575 -0.148237,-0.469176 -0.146797,-0.139601 -0.395777,-0.139601 -0.158311,0 -0.287838,0.06189 -0.129527,0.06045 -0.221635,0.174142 h -0.0072 l -0.01295,-0.207244 h -0.259054 z m 1.716955,0.40873 q 0.118013,0.09499 0.289277,0.156871 0.171263,0.06189 0.374189,0.06189 0.326696,0 0.531061,-0.174142 0.204365,-0.172702 0.204365,-0.49652 v -1.524102 h -0.259054 l -0.01295,0.204365 h -0.0072 q -0.06332,-0.09642 -0.194291,-0.164067 -0.130966,-0.06908 -0.305108,-0.06908 -0.310865,0 -0.497959,0.223074 -0.185656,0.223074 -0.185656,0.565601 v 0.04605 q 0,0.342527 0.185656,0.56704 0.187094,0.223075 0.497959,0.223075 0.174142,0 0.296473,-0.05757 0.123771,-0.05901 0.197169,-0.156872 v 0.14248 q 0,0.200047 -0.12377,0.309426 -0.122331,0.110817 -0.335331,0.110817 -0.15975,0 -0.289277,-0.05613 -0.128088,-0.05613 -0.200048,-0.130966 z m 0.228831,-1.170061 v -0.04605 q 0,-0.231709 0.109378,-0.39002 0.110818,-0.15975 0.346845,-0.15975 0.158311,0 0.269128,0.08203 0.110818,0.08059 0.15975,0.184216 v 0.614534 q -0.04893,0.103622 -0.15975,0.185655 -0.110817,0.08059 -0.269128,0.08059 -0.236027,0 -0.346845,-0.158311 -0.109378,-0.15975 -0.109378,-0.392898 z m 1.483803,-0.01439 h 0.853439 v -0.261933 h -0.853439 z m 0.954182,-0.567041 h 0.931156 v -0.224514 h -0.931156 z m 0.292156,0.951304 q 0,0.224514 0.105061,0.329575 0.1065,0.10506 0.284959,0.10506 0.07484,0 0.138162,-0.01295 0.06332,-0.01295 0.103622,-0.03022 v -0.236027 q -0.04318,0.01439 -0.08491,0.02303 -0.0403,0.0086 -0.08347,0.0086 -0.09211,0 -0.135284,-0.04318 -0.04318,-0.04318 -0.04318,-0.143919 v -1.496757 h -0.284959 v 0.411608 0.04318 z m 0.792993,0.990163 q 0.04318,0.01439 0.09067,0.02159 0.04749,0.0072 0.109378,0.0072 0.185656,0 0.312304,-0.112256 0.128088,-0.112257 0.205804,-0.313744 l 0.660588,-1.768764 h -0.270567 l -0.359798,1.017507 q -0.02159,0.05901 -0.04174,0.116575 -0.01871,0.05613 -0.02878,0.113696 h -0.0086 q -0.01007,-0.05757 -0.02878,-0.113696 -0.01871,-0.05757 -0.0403,-0.116575 l -0.382824,-1.017507 h -0.28496 l 0.60446,1.552886 v 0.0014 q -0.100744,0.28352 -0.172703,0.33821 -0.07052,0.05469 -0.179899,0.05469 -0.04605,0 -0.09499,-0.0072 -0.04893,-0.0072 -0.08923,-0.01871 z m 1.588865,0 h 0.28496 v -0.784359 q 0.0734,0.09786 0.19573,0.156872 0.12377,0.05757 0.297912,0.05757 0.310865,0 0.49652,-0.223075 0.187095,-0.224513 0.187095,-0.56704 v -0.04605 q 0,-0.342527 -0.187095,-0.565601 -0.185655,-0.223074 -0.49652,-0.223074 -0.174142,0 -0.305108,0.06908 -0.130967,0.06764 -0.194291,0.164067 h -0.0072 l -0.01295,-0.204365 h -0.259054 z m 0.28496,-1.075075 v -0.614534 q 0.04893,-0.103622 0.15975,-0.184216 0.110817,-0.08203 0.269128,-0.08203 0.236027,0 0.345406,0.15975 0.110817,0.158311 0.110817,0.39002 v 0.04605 q 0,0.233148 -0.110817,0.392898 -0.109379,0.158311 -0.345406,0.158311 -0.158311,0 -0.269128,-0.08059 -0.110818,-0.08203 -0.15975,-0.185655 z m 1.42192,-0.284959 q 0,0.355479 0.202925,0.579993 0.202926,0.224513 0.584311,0.224513 0.233149,0 0.395777,-0.09211 0.164068,-0.09355 0.240345,-0.202925 l -0.184216,-0.155433 q -0.06908,0.08779 -0.182777,0.151115 -0.112257,0.06332 -0.269129,0.06332 -0.254736,0 -0.377067,-0.164067 -0.120892,-0.165507 -0.120892,-0.404412 v -0.04605 q 0,-0.238905 0.115135,-0.402973 0.116574,-0.164067 0.33677,-0.164067 0.223075,0 0.315183,0.125209 0.09355,0.123771 0.09355,0.312304 v -0.0043 h -0.972892 v 0.228831 h 1.262169 v -0.120892 q 0,-0.356919 -0.181338,-0.567041 -0.179899,-0.210121 -0.516669,-0.210121 -0.333892,0 -0.538257,0.224513 -0.202925,0.224514 -0.202925,0.578554 z m 1.780277,0.600142 q 0,0.08059 0.05037,0.136722 0.05181,0.05613 0.146797,0.05613 0.09643,0 0.146798,-0.05613 0.05181,-0.05613 0.05181,-0.136722 0,-0.0806 -0.05181,-0.136723 -0.05037,-0.05613 -0.146798,-0.05613 -0.09499,0 -0.146797,0.05613 -0.05037,0.05613 -0.05037,0.136723 z m 0.741181,-0.299352 v 0.0072 q 0,0.224514 0.171263,0.361237 0.172703,0.135283 0.500838,0.135283 0.328135,0 0.492203,-0.133844 0.165507,-0.133845 0.165507,-0.342527 0,-0.208683 -0.14248,-0.323818 -0.141041,-0.115135 -0.414487,-0.169824 -0.272006,-0.05469 -0.352601,-0.1065 -0.07916,-0.05325 -0.07916,-0.14248 0,-0.08635 0.07772,-0.146797 0.07772,-0.06045 0.253297,-0.06045 0.175581,0 0.259054,0.06764 0.08347,0.06764 0.08347,0.182777 v 0.0072 h 0.283521 v -0.0072 q 0,-0.21444 -0.169825,-0.345406 Q 44.622678,23.1411 44.33484,23.1411 q -0.282081,0 -0.449027,0.128088 -0.165507,0.128087 -0.165507,0.322378 0,0.194291 0.14248,0.306547 0.14248,0.112257 0.414487,0.166946 0.273446,0.05469 0.351162,0.110818 0.07772,0.05469 0.07772,0.158311 0,0.100743 -0.0993,0.166946 -0.09786,0.06476 -0.272007,0.06476 -0.174142,0 -0.280642,-0.06764 -0.1065,-0.06908 -0.1065,-0.200047 v -0.0072 z m 1.52698,1.059244 q 0.04318,0.01439 0.09067,0.02159 0.04749,0.0072 0.109378,0.0072 0.185656,0 0.312304,-0.112256 0.128088,-0.112257 0.205804,-0.313744 l 0.660588,-1.768764 h -0.270567 l -0.359798,1.017507 q -0.02159,0.05901 -0.04174,0.116575 -0.01871,0.05613 -0.02878,0.113696 h -0.0086 q -0.01007,-0.05757 -0.02878,-0.113696 -0.01871,-0.05757 -0.0403,-0.116575 l -0.382825,-1.017507 h -0.284959 l 0.60446,1.552886 v 0.0014 q -0.100744,0.28352 -0.172703,0.33821 -0.07052,0.05469 -0.179899,0.05469 -0.04605,0 -0.09499,-0.0072 -0.04893,-0.0072 -0.08923,-0.01871 z m 1.491002,-1.059244 v 0.0072 q 0,0.224514 0.171264,0.361237 0.172703,0.135283 0.500838,0.135283 0.328135,0 0.492202,-0.133844 0.165507,-0.133845 0.165507,-0.342527 0,-0.208683 -0.142479,-0.323818 -0.141041,-0.115135 -0.414487,-0.169824 -0.272007,-0.05469 -0.352601,-0.1065 -0.07916,-0.05325 -0.07916,-0.14248 0,-0.08635 0.07772,-0.146797 0.07772,-0.06045 0.253298,-0.06045 0.175581,0 0.259054,0.06764 0.08347,0.06764 0.08347,0.182777 v 0.0072 h 0.28352 v -0.0072 q 0,-0.21444 -0.169824,-0.345406 -0.168385,-0.132405 -0.456223,-0.132405 -0.282081,0 -0.449027,0.128088 -0.165507,0.128087 -0.165507,0.322378 0,0.194291 0.14248,0.306547 0.142479,0.112257 0.414486,0.166946 0.273446,0.05469 0.351162,0.110818 0.07772,0.05469 0.07772,0.158311 0,0.100743 -0.0993,0.166946 -0.09787,0.06476 -0.272007,0.06476 -0.174142,0 -0.280642,-0.06764 -0.1065,-0.06908 -0.1065,-0.200047 v -0.0072 z m 1.444947,-0.882223 h 0.931155 v -0.224514 h -0.931155 z m 0.292155,0.951304 q 0,0.224514 0.105061,0.329575 0.1065,0.10506 0.284959,0.10506 0.07484,0 0.138163,-0.01295 0.06332,-0.01295 0.103621,-0.03022 v -0.236027 q -0.04318,0.01439 -0.08491,0.02303 -0.0403,0.0086 -0.08347,0.0086 -0.09211,0 -0.135284,-0.04318 -0.04318,-0.04318 -0.04318,-0.143919 v -1.496757 h -0.28496 v 0.411608 0.04318 z m 0.833288,-0.369871 q 0,0.355479 0.202926,0.579993 0.202926,0.224513 0.584311,0.224513 0.233149,0 0.395777,-0.09211 0.164068,-0.09355 0.240345,-0.202925 l -0.184216,-0.155433 q -0.06908,0.08779 -0.182777,0.151115 -0.112257,0.06332 -0.269129,0.06332 -0.254736,0 -0.377068,-0.164067 -0.120891,-0.165507 -0.120891,-0.404412 v -0.04605 q 0,-0.238905 0.115135,-0.402973 0.116574,-0.164067 0.33677,-0.164067 0.223074,0 0.315183,0.125209 0.09355,0.123771 0.09355,0.312304 v -0.0043 h -0.972892 v 0.228831 h 1.262169 v -0.120892 q 0,-0.356919 -0.181338,-0.567041 -0.179899,-0.210121 -0.516669,-0.210121 -0.333892,0 -0.538257,0.224513 -0.202926,0.224514 -0.202926,0.578554 z m 1.76301,0.761331 h 0.284959 v -1.090906 q 0.06189,-0.115135 0.162629,-0.187094 0.102182,-0.0734 0.238905,-0.0734 0.158311,0 0.244662,0.08347 0.08635,0.08347 0.08635,0.277763 v 0.990163 h 0.286398 v -1.090906 q 0.06189,-0.115135 0.162629,-0.187094 0.102182,-0.0734 0.238905,-0.0734 0.158311,0 0.243223,0.08347 0.08635,0.08347 0.08779,0.277763 v 0.990163 h 0.284959 v -0.987284 q 0,-0.328135 -0.145358,-0.467737 -0.143919,-0.14104 -0.398655,-0.14104 -0.164068,0 -0.293595,0.06332 -0.129527,0.06189 -0.234588,0.204365 h -0.0072 q -0.06188,-0.139601 -0.182777,-0.202926 -0.119453,-0.06476 -0.284959,-0.06476 -0.153994,0 -0.279203,0.06189 -0.12521,0.06189 -0.215878,0.174142 h -0.0072 l -0.01295,-0.207244 h -0.259054 z m 2.635156,-0.460541 v 0.0072 q 0,0.224514 0.171263,0.361237 0.172703,0.135283 0.500838,0.135283 0.328135,0 0.492203,-0.133844 0.165507,-0.133845 0.165507,-0.342527 0,-0.208683 -0.14248,-0.323818 -0.141041,-0.115135 -0.414487,-0.169824 -0.272006,-0.05469 -0.352601,-0.1065 -0.07916,-0.05325 -0.07916,-0.14248 0,-0.08635 0.07772,-0.146797 0.07772,-0.06045 0.253297,-0.06045 0.175581,0 0.259054,0.06764 0.08347,0.06764 0.08347,0.182777 v 0.0072 h 0.283521 v -0.0072 q 0,-0.21444 -0.169825,-0.345406 -0.168385,-0.132405 -0.456223,-0.132405 -0.282081,0 -0.449027,0.128088 -0.165507,0.128087 -0.165507,0.322378 0,0.194291 0.14248,0.306547 0.14248,0.112257 0.414487,0.166946 0.273446,0.05469 0.351162,0.110818 0.07772,0.05469 0.07772,0.158311 0,0.100743 -0.0993,0.166946 -0.09786,0.06476 -0.272007,0.06476 -0.174142,0 -0.280642,-0.06764 -0.1065,-0.06908 -0.1065,-0.200047 v -0.0072 z"
         id="path39" />
      <path
         style="font-weight:900;-inkscape-font-specification:'Roboto Flex, Heavy @GRAD=0,opsz=14,slnt=0,wght=800,wdth=100,XOPQ=96,XTRA=468,YOPQ=79,YTAS=750,YTDE=-203,YTFI=738,YTLC=514,YTUC=712';font-variation-settings:'GRAD' 0, 'opsz' 14, 'slnt' 0, 'wdth' 100, 'wght' 800, 'XOPQ' 96, 'XTRA' 468, 'YOPQ' 79, 'YTAS' 750, 'YTDE' -203, 'YTFI' 738, 'YTLC' 514, 'YTUC' 712"
         d="m 10.374289,28.292822 h 0.548331 l 0.338209,-1.362912 q 0.01151,-0.05037 0.01727,-0.08923 0.0058,-0.03886 0.01007,-0.08779 h 0.01151 q 0.0043,0.04893 0.01007,0.08779 0.0058,0.03886 0.01727,0.08923 l 0.339649,1.362912 h 0.565601 l 0.472054,-2.099777 h -0.423121 l -0.283521,1.360034 q -0.0086,0.05037 -0.01439,0.08059 -0.0043,0.03022 -0.0086,0.08059 h -0.01151 q -0.0058,-0.05037 -0.0086,-0.08059 -0.0029,-0.03022 -0.01439,-0.08059 l -0.326696,-1.360034 h -0.559845 l -0.325257,1.362912 q -0.01007,0.05037 -0.01439,0.07916 -0.0029,0.02878 -0.0072,0.07916 h -0.01295 q -0.0043,-0.05037 -0.0086,-0.07916 -0.0043,-0.02878 -0.01439,-0.07916 L 10.378606,26.193045 H 9.8864034 Z m 2.421194,-0.742621 q 0,0.356919 0.217318,0.569919 0.217317,0.213 0.591506,0.213 0.237467,0 0.415926,-0.08923 0.179899,-0.08923 0.251858,-0.237466 l -0.342527,-0.217318 q -0.05325,0.07484 -0.138162,0.135284 -0.08347,0.05901 -0.197169,0.05901 -0.156872,0 -0.240345,-0.105061 -0.08203,-0.105061 -0.08203,-0.297912 v -0.1065 q 0,-0.198609 0.07628,-0.303669 0.07628,-0.1065 0.218757,-0.1065 0.125209,0 0.19429,0.07772 0.06908,0.07628 0.06908,0.189973 v 0.03166 h -0.700885 v 0.284959 h 1.174378 V 27.47968 q 0,-0.355479 -0.197168,-0.555527 -0.19573,-0.200047 -0.535379,-0.200047 -0.335331,0 -0.555527,0.213 -0.220196,0.213 -0.220196,0.567041 z m 1.761568,0.738304 h 0.459101 l 0.0086,-0.161189 h 0.0086 q 0.04317,0.08491 0.164067,0.138162 0.122331,0.05181 0.259054,0.05181 0.295034,0 0.467737,-0.210122 0.172703,-0.211561 0.172703,-0.556966 v -0.04605 q 0,-0.342528 -0.171264,-0.554088 -0.171263,-0.211561 -0.467736,-0.211561 -0.135284,0 -0.241784,0.04605 -0.105061,0.04462 -0.17846,0.132405 V 26.087984 H 14.557051 Z M 15.03774,27.754566 V 27.30266 q 0.02878,-0.08059 0.100744,-0.14248 0.07196,-0.06189 0.182777,-0.06189 0.146797,0 0.214439,0.103622 0.06908,0.102182 0.06908,0.276324 v 0.100743 q 0,0.172703 -0.06908,0.276325 -0.06908,0.103621 -0.210122,0.103621 -0.118013,0 -0.188534,-0.06189 -0.07052,-0.06189 -0.0993,-0.142479 z"
         id="path40" />
      <path
         d="m 17.128882,28.288505 h 0.28496 v -1.090906 q 0.06189,-0.115135 0.168385,-0.187094 0.1065,-0.0734 0.24754,-0.0734 0.165507,0 0.254737,0.08347 0.09067,0.08347 0.09067,0.277763 v 0.990163 h 0.286399 v -0.987284 q 0,-0.329575 -0.148237,-0.469176 -0.146797,-0.139601 -0.395777,-0.139601 -0.158311,0 -0.286399,0.06189 -0.126648,0.06045 -0.217317,0.169824 V 26.07791 h -0.28496 z m 1.531298,-1.342764 h 0.931156 V 26.721228 H 18.66018 Z m 0.292156,0.951304 q 0,0.224514 0.10506,0.329575 0.1065,0.10506 0.28496,0.10506 0.07484,0 0.138162,-0.01295 0.06332,-0.01295 0.103622,-0.03022 v -0.236027 q -0.04318,0.01439 -0.08491,0.02303 -0.0403,0.0086 -0.08347,0.0086 -0.09211,0 -0.135284,-0.04318 -0.04318,-0.04317 -0.04318,-0.143919 v -1.496757 h -0.284959 v 0.411608 0.04318 z m 0.710959,-0.951304 h 0.931155 v -0.224513 h -0.931155 z m 0.292155,0.951304 q 0,0.224514 0.105061,0.329575 0.1065,0.10506 0.28496,0.10506 0.07484,0 0.138162,-0.01295 0.06332,-0.01295 0.103621,-0.03022 v -0.236027 q -0.04318,0.01439 -0.08491,0.02303 -0.0403,0.0086 -0.08347,0.0086 -0.09211,0 -0.135284,-0.04318 -0.04317,-0.04317 -0.04317,-0.143919 v -1.496757 h -0.28496 v 0.411608 0.04318 z m 0.92396,0.990163 h 0.28496 v -0.784359 q 0.0734,0.09787 0.19573,0.156872 0.12377,0.05757 0.297912,0.05757 0.310865,0 0.49652,-0.223075 0.187095,-0.224513 0.187095,-0.56704 v -0.04605 q 0,-0.342528 -0.187095,-0.565602 -0.185655,-0.223074 -0.49652,-0.223074 -0.174142,0 -0.305108,0.06908 -0.130966,0.06764 -0.194291,0.164067 h -0.0072 l -0.01295,-0.204364 H 20.87941 Z m 0.28496,-1.075075 v -0.614534 q 0.04893,-0.103621 0.15975,-0.184216 0.110818,-0.08203 0.269128,-0.08203 0.236027,0 0.345406,0.15975 0.110817,0.158311 0.110817,0.390021 v 0.04605 q 0,0.233148 -0.110817,0.392898 -0.109379,0.158311 -0.345406,0.158311 -0.15831,0 -0.269128,-0.08059 -0.110818,-0.08203 -0.15975,-0.185656 z m 1.414723,0.01583 v 0.0072 q 0,0.224514 0.171263,0.361237 0.172703,0.135283 0.500838,0.135283 0.328136,0 0.492203,-0.133844 0.165507,-0.133845 0.165507,-0.342527 0,-0.208683 -0.14248,-0.323818 -0.14104,-0.115135 -0.414486,-0.169824 -0.272007,-0.05469 -0.352602,-0.1065 -0.07916,-0.05325 -0.07916,-0.14248 0,-0.08635 0.07772,-0.146797 0.07772,-0.06045 0.253297,-0.06045 0.175582,0 0.259054,0.06764 0.08347,0.06764 0.08347,0.182777 v 0.0072 h 0.283521 v -0.0072 q 0,-0.21444 -0.169825,-0.345406 -0.168385,-0.132405 -0.456223,-0.132405 -0.282081,0 -0.449027,0.128088 -0.165506,0.128088 -0.165506,0.322378 0,0.194291 0.142479,0.306547 0.14248,0.112257 0.414487,0.166946 0.273446,0.05469 0.351162,0.110818 0.07772,0.05469 0.07772,0.158311 0,0.100743 -0.0993,0.166946 -0.09786,0.06476 -0.272007,0.06476 -0.174142,0 -0.280642,-0.06764 -0.1065,-0.06908 -0.1065,-0.200047 v -0.0072 z m 1.698244,0.309426 q 0,0.07484 0.04893,0.129527 0.04893,0.05325 0.139601,0.05325 0.09067,0 0.139602,-0.05325 0.04893,-0.05469 0.04893,-0.129527 0,-0.07628 -0.04893,-0.129527 -0.04893,-0.05469 -0.139602,-0.05469 -0.09067,0 -0.139601,0.05469 -0.04893,0.05325 -0.04893,0.129527 z m 0,-1.257852 q 0,0.07484 0.04893,0.129527 0.04893,0.05325 0.139601,0.05325 0.09067,0 0.139602,-0.05325 0.04893,-0.05469 0.04893,-0.129527 0,-0.07628 -0.04893,-0.129527 -0.04893,-0.05469 -0.139602,-0.05469 -0.09067,0 -0.139601,0.05469 -0.04893,0.05325 -0.04893,0.129527 z m 0.486446,1.588865 h 0.26625 l 0.918202,-2.275358 h -0.26625 z m 0.554087,0 h 0.26625 l 0.918203,-2.275358 h -0.26625 z m 1.155669,-0.640439 v 0.0072 q 0,0.224514 0.171264,0.361237 0.172703,0.135283 0.500838,0.135283 0.328135,0 0.492203,-0.133844 0.165506,-0.133845 0.165506,-0.342527 0,-0.208683 -0.142479,-0.323818 -0.141041,-0.115135 -0.414487,-0.169824 -0.272007,-0.05469 -0.352601,-0.1065 -0.07916,-0.05325 -0.07916,-0.14248 0,-0.08635 0.07772,-0.146797 0.07772,-0.06045 0.253298,-0.06045 0.175581,0 0.259054,0.06764 0.08347,0.06764 0.08347,0.182777 v 0.0072 h 0.28352 v -0.0072 q 0,-0.21444 -0.169824,-0.345406 -0.168385,-0.132405 -0.456223,-0.132405 -0.282081,0 -0.449027,0.128088 -0.165507,0.128088 -0.165507,0.322378 0,0.194291 0.14248,0.306547 0.142479,0.112257 0.414486,0.166946 0.273446,0.05469 0.351162,0.110818 0.07772,0.05469 0.07772,0.158311 0,0.100743 -0.0993,0.166946 -0.09786,0.06476 -0.272007,0.06476 -0.174142,0 -0.280642,-0.06764 -0.1065,-0.06908 -0.1065,-0.200047 v -0.0072 z m 1.444947,-0.882223 h 0.931155 v -0.224513 h -0.931155 z m 0.292155,0.951304 q 0,0.224514 0.105061,0.329575 0.1065,0.10506 0.284959,0.10506 0.07484,0 0.138163,-0.01295 0.06332,-0.01295 0.103621,-0.03022 v -0.236027 q -0.04318,0.01439 -0.08491,0.02303 -0.0403,0.0086 -0.08347,0.0086 -0.09211,0 -0.135284,-0.04318 -0.04317,-0.04317 -0.04317,-0.143919 v -1.496757 h -0.28496 v 0.411608 0.04318 z m 0.923959,0.39146 h 0.28496 v -1.085149 q 0.04893,-0.103622 0.148236,-0.174142 0.0993,-0.07052 0.241784,-0.07052 0.0403,0 0.0734,0.0029 0.0331,0.0029 0.06332,0.0086 V 26.6982 q -0.01439,-0.0058 -0.05181,-0.01295 -0.03598,-0.0072 -0.06908,-0.0072 -0.142479,0 -0.246101,0.07484 -0.102183,0.0734 -0.165507,0.171263 h -0.0072 l -0.01295,-0.202925 H 29.1346 Z m 0.946986,-0.761331 q 0,0.355479 0.210122,0.579993 0.211561,0.224513 0.564162,0.224513 0.351162,0 0.561284,-0.224513 0.211561,-0.224514 0.211561,-0.579993 v -0.04605 q 0,-0.354041 -0.211561,-0.578555 -0.210122,-0.224513 -0.562723,-0.224513 -0.351162,0 -0.562723,0.224513 -0.210122,0.224514 -0.210122,0.578555 z m 0.292156,-0.04605 q 0,-0.236028 0.120892,-0.400095 0.120892,-0.164068 0.359797,-0.164068 0.240345,0 0.361237,0.164068 0.120891,0.164067 0.120891,0.400095 v 0.04605 q 0,0.237466 -0.120891,0.401533 -0.120892,0.164068 -0.361237,0.164068 -0.238905,0 -0.359797,-0.164068 -0.120892,-0.164067 -0.120892,-0.401533 z m 1.590305,0.807385 h 0.28496 v -1.090906 q 0.06189,-0.115135 0.168385,-0.187094 0.1065,-0.0734 0.24754,-0.0734 0.165507,0 0.254737,0.08347 0.09067,0.08347 0.09067,0.277763 v 0.990163 h 0.286399 v -0.987284 q 0,-0.329575 -0.148237,-0.469176 -0.146797,-0.139601 -0.395777,-0.139601 -0.158311,0 -0.287838,0.06189 -0.129527,0.06045 -0.221635,0.174142 h -0.0072 l -0.01295,-0.207243 h -0.259054 z m 1.716953,0.40873 q 0.118013,0.09499 0.289277,0.156871 0.171263,0.06189 0.374189,0.06189 0.326696,0 0.531061,-0.174142 0.204365,-0.172702 0.204365,-0.49652 v -1.524101 h -0.259054 l -0.01295,0.204364 h -0.0072 q -0.06332,-0.09642 -0.194291,-0.164067 -0.130966,-0.06908 -0.305108,-0.06908 -0.310865,0 -0.497959,0.223074 -0.185656,0.223074 -0.185656,0.565602 v 0.04605 q 0,0.342527 0.185656,0.56704 0.187094,0.223075 0.497959,0.223075 0.174142,0 0.296473,-0.05757 0.123771,-0.05901 0.197169,-0.156872 v 0.14248 q 0,0.200047 -0.12377,0.309426 -0.122331,0.110817 -0.335331,0.110817 -0.15975,0 -0.289277,-0.05613 -0.128088,-0.05613 -0.200048,-0.130966 z m 0.228831,-1.170061 v -0.04605 q 0,-0.23171 0.109378,-0.390021 0.110818,-0.15975 0.346845,-0.15975 0.158311,0 0.269128,0.08203 0.110818,0.08059 0.15975,0.184216 v 0.614534 q -0.04893,0.103622 -0.15975,0.185656 -0.110817,0.08059 -0.269128,0.08059 -0.236027,0 -0.346845,-0.158311 -0.109378,-0.15975 -0.109378,-0.392898 z m 1.483805,-0.01439 h 0.853439 v -0.261933 h -0.853439 z m 0.954182,-0.567041 h 0.931156 v -0.224513 h -0.931156 z m 0.292156,0.951304 q 0,0.224514 0.105061,0.329575 0.1065,0.10506 0.284959,0.10506 0.07484,0 0.138162,-0.01295 0.06332,-0.01295 0.103622,-0.03022 v -0.236027 q -0.04318,0.01439 -0.08491,0.02303 -0.0403,0.0086 -0.08347,0.0086 -0.09211,0 -0.135284,-0.04318 -0.04318,-0.04317 -0.04318,-0.143919 v -1.496757 h -0.284959 v 0.411608 0.04318 z m 0.792993,0.990163 q 0.04318,0.01439 0.09067,0.02159 0.04749,0.0072 0.109378,0.0072 0.185656,0 0.312304,-0.112256 0.128088,-0.112257 0.205804,-0.313744 l 0.660588,-1.768763 h -0.270567 l -0.359798,1.017506 q -0.02159,0.05901 -0.04174,0.116575 -0.01871,0.05613 -0.02878,0.113696 h -0.0086 q -0.01007,-0.05757 -0.02878,-0.113696 -0.01871,-0.05757 -0.0403,-0.116575 l -0.382825,-1.017506 h -0.284959 l 0.60446,1.552885 v 0.0014 q -0.100744,0.28352 -0.172703,0.33821 -0.07052,0.05469 -0.179899,0.05469 -0.04605,0 -0.09499,-0.0072 -0.04893,-0.0072 -0.08923,-0.01871 z m 1.588865,0 h 0.28496 v -0.784359 q 0.0734,0.09787 0.195729,0.156872 0.123771,0.05757 0.297913,0.05757 0.310865,0 0.49652,-0.223075 0.187095,-0.224513 0.187095,-0.56704 v -0.04605 q 0,-0.342528 -0.187095,-0.565602 -0.185655,-0.223074 -0.49652,-0.223074 -0.174142,0 -0.305108,0.06908 -0.130967,0.06764 -0.194291,0.164067 h -0.0072 l -0.01295,-0.204364 h -0.259054 z m 0.28496,-1.075075 v -0.614534 q 0.04893,-0.103621 0.15975,-0.184216 0.110817,-0.08203 0.269128,-0.08203 0.236027,0 0.345406,0.15975 0.110817,0.158311 0.110817,0.390021 v 0.04605 q 0,0.233148 -0.110817,0.392898 -0.109379,0.158311 -0.345406,0.158311 -0.158311,0 -0.269128,-0.08059 -0.110818,-0.08203 -0.15975,-0.185656 z m 1.42192,-0.284959 q 0,0.355479 0.202925,0.579993 0.202926,0.224513 0.584311,0.224513 0.233149,0 0.395777,-0.09211 0.164068,-0.09355 0.240345,-0.202925 l -0.184216,-0.155433 q -0.06908,0.08779 -0.182777,0.151115 -0.112257,0.06332 -0.269129,0.06332 -0.254736,0 -0.377067,-0.164067 -0.120892,-0.165507 -0.120892,-0.404412 v -0.04605 q 0,-0.238906 0.115135,-0.402974 0.116574,-0.164067 0.33677,-0.164067 0.223074,0 0.315183,0.125209 0.09355,0.123771 0.09355,0.312304 v -0.0043 h -0.972892 v 0.228831 h 1.262169 v -0.120892 q 0,-0.356919 -0.181338,-0.567041 -0.179899,-0.210121 -0.516669,-0.210121 -0.333892,0 -0.538257,0.224513 -0.202925,0.224514 -0.202925,0.578555 z m 1.780275,0.600142 q 0,0.08059 0.05037,0.136723 0.05181,0.05613 0.146797,0.05613 0.09643,0 0.146798,-0.05613 0.05181,-0.05613 0.05181,-0.136723 0,-0.08059 -0.05181,-0.136723 -0.05037,-0.05613 -0.146798,-0.05613 -0.09499,0 -0.146797,0.05613 -0.05037,0.05613 -0.05037,0.136723 z m 0.741185,-0.299352 v 0.0072 q 0,0.224514 0.171263,0.361237 0.172703,0.135283 0.500838,0.135283 0.328135,0 0.492203,-0.133844 0.165507,-0.133845 0.165507,-0.342527 0,-0.208683 -0.14248,-0.323818 -0.141041,-0.115135 -0.414487,-0.169824 -0.272006,-0.05469 -0.352601,-0.1065 -0.07916,-0.05325 -0.07916,-0.14248 0,-0.08635 0.07772,-0.146797 0.07772,-0.06045 0.253297,-0.06045 0.175581,0 0.259054,0.06764 0.08347,0.06764 0.08347,0.182777 v 0.0072 h 0.28352 v -0.0072 q 0,-0.21444 -0.169824,-0.345406 -0.168385,-0.132405 -0.456223,-0.132405 -0.282081,0 -0.449027,0.128088 -0.165507,0.128088 -0.165507,0.322378 0,0.194291 0.14248,0.306547 0.14248,0.112257 0.414487,0.166946 0.273445,0.05469 0.351162,0.110818 0.07772,0.05469 0.07772,0.158311 0,0.100743 -0.0993,0.166946 -0.09786,0.06476 -0.272007,0.06476 -0.174142,0 -0.280642,-0.06764 -0.1065,-0.06908 -0.1065,-0.200047 v -0.0072 z m 1.52698,1.059244 q 0.04317,0.01439 0.09067,0.02159 0.04749,0.0072 0.109378,0.0072 0.185656,0 0.312304,-0.112256 0.128088,-0.112257 0.205804,-0.313744 l 0.660588,-1.768763 h -0.270567 l -0.359798,1.017506 q -0.02159,0.05901 -0.04174,0.116575 -0.01871,0.05613 -0.02878,0.113696 h -0.0086 q -0.01007,-0.05757 -0.02878,-0.113696 -0.01871,-0.05757 -0.0403,-0.116575 L 44.994469,26.721228 H 44.70951 l 0.604459,1.552885 v 0.0014 q -0.100743,0.28352 -0.172702,0.33821 -0.07052,0.05469 -0.179899,0.05469 -0.04605,0 -0.09499,-0.0072 -0.04893,-0.0072 -0.08923,-0.01871 z m 1.490998,-1.059244 v 0.0072 q 0,0.224514 0.171264,0.361237 0.172703,0.135283 0.500838,0.135283 0.328135,0 0.492203,-0.133844 0.165506,-0.133845 0.165506,-0.342527 0,-0.208683 -0.142479,-0.323818 -0.141041,-0.115135 -0.414487,-0.169824 -0.272007,-0.05469 -0.352601,-0.1065 -0.07916,-0.05325 -0.07916,-0.14248 0,-0.08635 0.07772,-0.146797 0.07772,-0.06045 0.253298,-0.06045 0.175581,0 0.259054,0.06764 0.08347,0.06764 0.08347,0.182777 v 0.0072 h 0.28352 v -0.0072 q 0,-0.21444 -0.169824,-0.345406 -0.168385,-0.132405 -0.456223,-0.132405 -0.282081,0 -0.449027,0.128088 -0.165507,0.128088 -0.165507,0.322378 0,0.194291 0.14248,0.306547 0.142479,0.112257 0.414486,0.166946 0.273446,0.05469 0.351162,0.110818 0.07772,0.05469 0.07772,0.158311 0,0.100743 -0.0993,0.166946 -0.09787,0.06476 -0.272007,0.06476 -0.174142,0 -0.280642,-0.06764 -0.1065,-0.06908 -0.1065,-0.200047 v -0.0072 z m 1.444947,-0.882223 h 0.931155 v -0.224513 h -0.931155 z m 0.292155,0.951304 q 0,0.224514 0.105061,0.329575 0.1065,0.10506 0.284959,0.10506 0.07484,0 0.138163,-0.01295 0.06332,-0.01295 0.103621,-0.03022 v -0.236027 q -0.04317,0.01439 -0.08491,0.02303 -0.0403,0.0086 -0.08347,0.0086 -0.09211,0 -0.135284,-0.04318 -0.04318,-0.04317 -0.04318,-0.143919 v -1.496757 h -0.28496 v 0.411608 0.04318 z m 0.833292,-0.369871 q 0,0.355479 0.202926,0.579993 0.202926,0.224513 0.584311,0.224513 0.233149,0 0.395777,-0.09211 0.164068,-0.09355 0.240345,-0.202925 l -0.184217,-0.155433 q -0.06908,0.08779 -0.182777,0.151115 -0.112256,0.06332 -0.269128,0.06332 -0.254737,0 -0.377068,-0.164067 -0.120892,-0.165507 -0.120892,-0.404412 v -0.04605 q 0,-0.238906 0.115136,-0.402974 0.116574,-0.164067 0.33677,-0.164067 0.223074,0 0.315182,0.125209 0.09355,0.123771 0.09355,0.312304 v -0.0043 h -0.972892 v 0.228831 h 1.262169 v -0.120892 q 0,-0.356919 -0.181338,-0.567041 -0.179899,-0.210121 -0.516669,-0.210121 -0.333892,0 -0.538257,0.224513 -0.202926,0.224514 -0.202926,0.578555 z m 1.763006,0.761331 h 0.284959 v -1.090906 q 0.06189,-0.115135 0.162629,-0.187094 0.102182,-0.0734 0.238905,-0.0734 0.158311,0 0.244662,0.08347 0.08635,0.08347 0.08635,0.277763 v 0.990163 h 0.286398 v -1.090906 q 0.06189,-0.115135 0.162629,-0.187094 0.102182,-0.0734 0.238905,-0.0734 0.158311,0 0.243223,0.08347 0.08635,0.08347 0.08779,0.277763 v 0.990163 h 0.284959 v -0.987284 q 0,-0.328135 -0.145358,-0.467737 -0.143919,-0.14104 -0.398655,-0.14104 -0.164068,0 -0.293595,0.06332 -0.129527,0.06189 -0.234588,0.204365 h -0.0072 q -0.06188,-0.139601 -0.182777,-0.202926 -0.119452,-0.06476 -0.284959,-0.06476 -0.153994,0 -0.279203,0.06189 -0.125209,0.06189 -0.215878,0.174142 h -0.0072 l -0.01295,-0.207243 H 50.60155 Z m 2.635156,-0.460541 v 0.0072 q 0,0.224514 0.171263,0.361237 0.172703,0.135283 0.500838,0.135283 0.328135,0 0.492203,-0.133844 0.165507,-0.133845 0.165507,-0.342527 0,-0.208683 -0.14248,-0.323818 -0.141041,-0.115135 -0.414487,-0.169824 -0.272006,-0.05469 -0.352601,-0.1065 -0.07916,-0.05325 -0.07916,-0.14248 0,-0.08635 0.07772,-0.146797 0.07772,-0.06045 0.253297,-0.06045 0.175581,0 0.259054,0.06764 0.08347,0.06764 0.08347,0.182777 v 0.0072 h 0.283521 v -0.0072 q 0,-0.21444 -0.169825,-0.345406 -0.168385,-0.132405 -0.456223,-0.132405 -0.282081,0 -0.449027,0.128088 -0.165507,0.128088 -0.165507,0.322378 0,0.194291 0.14248,0.306547 0.14248,0.112257 0.414487,0.166946 0.273446,0.05469 0.351162,0.110818 0.07772,0.05469 0.07772,0.158311 0,0.100743 -0.0993,0.166946 -0.09786,0.06476 -0.272007,0.06476 -0.174142,0 -0.280642,-0.06764 -0.1065,-0.06908 -0.1065,-0.200047 v -0.0072 z"
         id="path41" />
    </g>
    <text
       xml:space="preserve"
       style="font-style:normal;font-variant:normal;font-weight:normal;font-stretch:normal;font-size:2.82222px;font-family:'Roboto Flex';-inkscape-font-specification:'Roboto Flex, Normal @GRAD=0,opsz=8,slnt=0,wght=400,wdth=100,XOPQ=96,XTRA=468,YOPQ=79,YTAS=750,YTDE=-203,YTFI=738,YTLC=514,YTUC=712';font-variant-ligatures:none;font-variant-caps:normal;font-variant-numeric:normal;font-variant-east-asian:normal;font-variation-settings:'GRAD' 0, 'opsz' 8, 'slnt' 0, 'wdth' 100, 'wght' 400, 'XOPQ' 96, 'XTRA' 468, 'YOPQ' 79, 'YTAS' 750, 'YTDE' -203, 'YTFI' 738, 'YTLC' 514, 'YTUC' 712;text-align:start;writing-mode:lr-tb;direction:ltr;text-anchor:start;fill:#000000;stroke-width:0.0242853"
       x="9.6761293"
       y="21.354794"
       id="text13-0"><tspan
         sodipodi:role="line"
         style="font-style:normal;font-variant:normal;font-weight:normal;font-stretch:normal;font-size:2.82222px;font-family:'Roboto Flex';-inkscape-font-specification:'Roboto Flex, Normal @GRAD=0,opsz=8,slnt=0,wght=400,wdth=100,XOPQ=96,XTRA=468,YOPQ=79,YTAS=750,YTDE=-203,YTFI=738,YTLC=514,YTUC=712';font-variant-ligatures:none;font-variant-caps:normal;font-variant-numeric:normal;font-variant-east-asian:normal;font-variation-settings:'GRAD' 0, 'opsz' 8, 'slnt' 0, 'wdth' 100, 'wght' 400, 'XOPQ' 96, 'XTRA' 468, 'YOPQ' 79, 'YTAS' 750, 'YTDE' -203, 'YTFI' 738, 'YTLC' 514, 'YTUC' 712;text-align:start;text-anchor:start;stroke-width:0.0242853"
         x="9.6761293"
         y="21.354794"
         id="tspan18" /></text>
    <text
       xml:space="preserve"
       style="font-style:normal;font-variant:normal;font-weight:normal;font-stretch:normal;font-size:2.82222px;font-family:'Roboto Flex';-inkscape-font-specification:'Roboto Flex, Normal @GRAD=0,opsz=8,slnt=0,wght=400,wdth=100,XOPQ=96,XTRA=468,YOPQ=79,YTAS=750,YTDE=-203,YTFI=738,YTLC=514,YTUC=712';font-variant-ligatures:none;font-variant-caps:normal;font-variant-numeric:normal;font-variant-east-asian:normal;font-variation-settings:'GRAD' 0, 'opsz' 8, 'slnt' 0, 'wdth' 100, 'wght' 400, 'XOPQ' 96, 'XTRA' 468, 'YOPQ' 79, 'YTAS' 750, 'YTDE' -203, 'YTFI' 738, 'YTLC' 514, 'YTUC' 712;text-align:start;writing-mode:lr-tb;direction:ltr;text-anchor:start;fill:#000000;stroke-width:0.0242853"
       x="10.810448"
       y="14.274961"
       id="text13-0-8"><tspan
         sodipodi:role="line"
         style="font-style:normal;font-variant:normal;font-weight:normal;font-stretch:normal;font-size:2.82222px;font-family:'Roboto Flex';-inkscape-font-specification:'Roboto Flex, Normal @GRAD=0,opsz=8,slnt=0,wght=400,wdth=100,XOPQ=96,XTRA=468,YOPQ=79,YTAS=750,YTDE=-203,YTFI=738,YTLC=514,YTUC=712';font-variant-ligatures:none;font-variant-caps:normal;font-variant-numeric:normal;font-variant-east-asian:normal;font-variation-settings:'GRAD' 0, 'opsz' 8, 'slnt' 0, 'wdth' 100, 'wght' 400, 'XOPQ' 96, 'XTRA' 468, 'YOPQ' 79, 'YTAS' 750, 'YTDE' -203, 'YTFI' 738, 'YTLC' 514, 'YTUC' 712;text-align:start;text-anchor:start;stroke-width:0.0242853"
         x="10.810448"
         y="14.274961"
         id="tspan18-1" /></text>
  </g>
</svg>
