<?xml version="1.0" encoding="UTF-8" standalone="no"?>
<svg
   viewbox="0 0 70 70"
   version="1.1"
   width="70"
   height="70"
   id="svg10"
   xmlns="http://www.w3.org/2000/svg"
   xmlns:svg="http://www.w3.org/2000/svg">
  <path
     style="fill:#c83737"
     d="M 35,0 16.736246,18.263753 c 2.053647,0.0012 3.889897,0.234455 5.505268,0.706205 0.763696,0.217407 1.48795,0.484622 2.175185,0.799843 h 21.133438 c 0.687235,-0.315372 1.411482,-0.582398 2.175185,-0.799843 1.623992,-0.474282 3.471492,-0.707495 5.538432,-0.706205 z M 16.584082,23.456887 c -0.793339,0 -1.502145,0.104126 -2.126416,0.312134 -0.61126,0.208008 -1.098982,0.520273 -1.463128,0.936402 -0.351152,0.416168 -0.526727,0.936383 -0.526727,1.560672 0,0.507222 0.149554,0.962444 0.448694,1.365586 0.299138,0.390158 0.825864,0.786831 1.580179,1.190013 0.754326,0.390156 1.807773,0.845377 3.160358,1.365586 3.225369,0.949439 5.670436,2.139422 7.335154,3.570036 1.677706,1.417589 2.516583,3.34897 2.516583,5.793991 0,1.677732 -0.455206,3.108388 -1.365587,4.291845 -0.910393,1.17051 -2.178445,2.067907 -3.804137,2.692159 -1.625694,0.611113 -3.518023,0.916893 -5.67694,0.916893 -1.649243,0 -3.164144,-0.115024 -4.549357,-0.339445 L 35,70 57.896996,47.103004 c -1.396744,0.22907 -2.926052,0.347249 -4.592274,0.347249 -2.15891,0 -4.051228,-0.305628 -5.676942,-0.916893 -1.625707,-0.624252 -2.893732,-1.521687 -3.804136,-2.692158 -0.910362,-1.183533 -1.365587,-2.614114 -1.365587,-4.291846 0,-2.445021 0.838889,-4.376402 2.516583,-5.793991 1.664699,-1.430613 4.109784,-2.620597 7.335154,-3.570035 1.352585,-0.52021 2.406013,-0.97543 3.160358,-1.365587 0.754296,-0.403182 1.281192,-0.799893 1.58018,-1.190012 0.29881,-0.40262 0.448305,-0.857208 0.448693,-1.363636 -3.72e-4,-0.623409 -0.176013,-1.144945 -0.526727,-1.560672 -0.364142,-0.416129 -0.851864,-0.728394 -1.463129,-0.936402 -0.624247,-0.208008 -1.333072,-0.312134 -2.126415,-0.312134 -0.923386,0 -1.794786,0.08883 -2.614123,0.271166 -0.815604,0.18113 -1.444589,0.38077 -1.886462,0.600859 l -0.158017,0.74522 h -0.0039 l -0.643777,3.062817 h -5.072187 v -3.062817 h -4.58057 v 22.044479 l 2.965275,0.624268 v 3.99922 h -12.77799 v -3.99922 l 2.965275,-0.624268 V 25.074132 h -4.613734 v 3.062817 h -5.072181 l -0.643777,-3.062817 -0.01171,-0.05463 -0.146313,-0.688646 C 20.646491,24.110092 20.016152,23.909634 19.1982,23.728051 18.378859,23.545713 17.507466,23.456885 16.584077,23.456885 Z m 47.329301,5.456496 c -0.180712,0.523861 -0.417802,1.007702 -0.717909,1.447522 -0.76732,1.105501 -1.931344,2.061409 -3.492001,2.867733 -1.560674,0.806362 -3.557044,1.59971 -5.989075,2.380024 -1.079453,0.416205 -1.937836,0.825885 -2.575108,1.229028 -0.637272,0.390158 -1.09227,0.806359 -1.365587,1.248537 -0.2861,0.442178 -0.429184,0.942902 -0.429184,1.502147 -1.2e-5,0.585216 0.149704,1.085978 0.448692,1.502145 0.299109,0.416055 0.741316,0.73469 1.326571,0.955911 0.585212,0.208008 1.31357,0.312134 2.18494,0.312134 1.248536,0 2.399538,-0.156 3.452984,-0.468201 1.053447,-0.32515 1.788285,-0.721785 2.204448,-1.190012 l 0.585252,-3.784627 h 5.286773 v 3.250098 L 70,35 Z M 6.0612564,28.938744 0,35 5.1326571,40.132658 v -3.214983 h 5.2867739 l 0.585251,3.784627 c 0.416182,0.468226 1.151001,0.864975 2.204448,1.190012 1.053458,0.312277 2.204456,0.468201 3.452985,0.468201 0.871377,0 1.599693,-0.104126 2.18494,-0.312134 0.585254,-0.221221 1.027431,-0.539857 1.32657,-0.955911 0.299124,-0.416205 0.448692,-0.916892 0.448692,-1.502146 0,-0.559243 -0.143069,-1.059968 -0.429184,-1.502146 C 19.920004,37.646 19.464821,37.229798 18.827546,36.839641 18.190274,36.436498 17.331891,36.026818 16.252438,35.610613 13.8204,34.830298 11.824033,34.036951 10.263364,33.230589 8.7027015,32.424265 7.5386817,31.466368 6.7713617,30.360905 6.4760035,29.928052 6.2409671,29.453355 6.0612564,28.938744 Z"
   />
</svg>
