<?xml version="1.0" encoding="UTF-8"?>
<svg version="1.1" viewBox="0 0 70 70" viewbox="0 0 70 70" xmlns="http://www.w3.org/2000/svg">
 <path d="m67.156 2.8436-33.56-1.3e-6c1.8857 1.8879 3.3584 3.7893 4.4092 5.7068.5019.90139.92181 1.8123 1.2636 2.7333l19.416 19.416c.92115.34165 1.8319.76172 2.7333 1.2636 1.9278 1.0563 3.8395 2.5394 5.7373 4.4396zm-38.471 4.6314c-.72888-.72888-1.4758-1.2844-2.2404-1.6669-.7527-.37049-1.4877-.53169-2.2046-.48393-.70498.059729-1.3442.37637-1.9178.94994-.46601.46601-.74684 1.0217-.8424 1.6669-.08362.63329.03586 1.4817.35847 2.5451.33458 1.0515.8842 2.4376 1.649 4.1582 2.091 3.8356 3.2441 7.1753 3.4592 10.019.23898 2.8438-.76476 5.389-3.0111 7.6354-1.5414 1.5414-3.2741 2.4376-5.1978 2.6885-1.9118.23898-3.9013-.10155-5.9685-1.0216-2.0551-.93215-4.0746-2.3898-6.0581-4.3733-1.5152-1.5152-2.8014-3.0127-3.8679-4.4916l1.3e-6 42.055h42.073c-1.4937-1.0728-3.0074-2.3693-4.5382-3.9001-1.9835-1.9835-3.4413-4.0029-4.3733-6.0581-.92009-2.0672-1.2606-4.0567-1.0216-5.9685.25098-1.9238 1.1471-3.6564 2.6885-5.1978 2.2464-2.2464 4.7916-3.2501 7.6354-3.0111 2.8438.21507 6.1836 1.3682 10.019 3.4592 1.7206.76475 3.1067 1.3144 4.1582 1.649 1.0634.32259 1.912.44219 2.5451.35847.64444-.09538 1.1994-.37568 1.6651-.84061.57242-.5731.89021-1.2136.94994-1.9178.04776-.71688-.11344-1.4519-.48393-2.2046-.38242-.76464-.93799-1.5115-1.6669-2.2404-.84836-.84836-1.7306-1.5674-2.6509-2.1526-.91575-.58292-1.6771-.97739-2.2852-1.1812l-.82985.53949-.0036-.0036-3.4054 2.2225-4.6601-4.6601 2.814-2.814-4.2084-4.2084-20.253 20.253 2.1508 3.2979-3.6743 3.6743-11.74-11.74 3.6743-3.6743 3.2979 2.1508 20.253-20.253-4.2389-4.2389-2.814 2.814-4.6601-4.6601 2.2225-3.4054.03944-.06095.49827-.76712c-.20333-.60898-.59828-1.3723-1.1829-2.2906-.58525-.9203-1.3042-1.8025-2.1526-2.6509zm38.471 48.497c-.64733.31527-1.3097.54197-1.9895.67033-1.7207.3107-3.6684.1195-5.843-.57355-2.1747-.69303-4.7378-1.7983-7.6891-3.3158-1.3741-.60936-2.5392-1.0216-3.4951-1.2367-.94395-.22704-1.7444-.26268-2.4017-.10754-.66911.1434-1.2606.47198-1.7744.98579-.53768.53766-.8602 1.1353-.96786 1.7923-.10744.65706.0061 1.3561.34054 2.097.34656.72877.92007 1.4936 1.7206 2.2942 1.1471 1.1471 2.3479 2.0613 3.6026 2.7423 1.2666.66913 2.3061.97985 3.1187.93202l4.0148-2.9394 4.8572 4.8572-2.986 2.986 9.4922-1e-6zm-53.175-53.129h-11.138l-1.3e-6 9.4313 2.9538-2.9538 4.8572 4.8572-2.9394 4.0148c-.047815.81255.26279 1.8522.93202 3.1187.68096 1.2548 1.5952 2.4555 2.7423 3.6026.80058.80058 1.5654 1.3741 2.2942 1.7206.74095.33446 1.44.44796 2.097.34054.65721-.10757 1.2546-.43016 1.7923-.96786.51381-.51381.8424-1.1053.98579-1.7744.15531-.65719.1195-1.4578-.10754-2.4017-.21511-.95588-.62735-2.1209-1.2367-3.4951-1.5175-2.9514-2.6228-5.5144-3.3158-7.6891-.69305-2.1747-.88243-4.1242-.57176-5.8448.12632-.66905.34651-1.3211.6542-1.959z" stroke-width="1.2993"/>
</svg>
