<?xml version="1.0" encoding="UTF-8" standalone="no"?>
<!-- Created with Inkscape (http://www.inkscape.org/) -->

<svg
   width="18.542484mm"
   height="18.54253mm"
   viewBox="0 0 18.542484 18.54253"
   version="1.1"
   id="svg5"
   inkscape:version="1.1.1 (3bf5ae0d25, 2021-09-20)"
   sodipodi:docname="sts-signet-transparent.svg"
   xmlns:inkscape="http://www.inkscape.org/namespaces/inkscape"
   xmlns:sodipodi="http://sodipodi.sourceforge.net/DTD/sodipodi-0.dtd"
   xmlns="http://www.w3.org/2000/svg"
   xmlns:svg="http://www.w3.org/2000/svg">
  <sodipodi:namedview
     id="namedview7"
     pagecolor="#ffffff"
     bordercolor="#666666"
     borderopacity="1.0"
     inkscape:pageshadow="2"
     inkscape:pageopacity="0.0"
     inkscape:pagecheckerboard="0"
     inkscape:document-units="mm"
     showgrid="false"
     inkscape:zoom="3.2248533"
     inkscape:cx="34.575217"
     inkscape:cy="45.583469"
     inkscape:window-width="1920"
     inkscape:window-height="1011"
     inkscape:window-x="0"
     inkscape:window-y="32"
     inkscape:window-maximized="1"
     inkscape:current-layer="layer1"
     inkscape:snap-intersection-paths="true"
     inkscape:snap-global="true"
     inkscape:object-paths="true"
     inkscape:snap-midpoints="true"
     inkscape:snap-bbox="true"
     showguides="true"
     inkscape:guide-bbox="true"
     fit-margin-top="0"
     fit-margin-left="0"
     fit-margin-right="0"
     fit-margin-bottom="0" />
  <defs
     id="defs2" />
  <g
     inkscape:label="Layer 1"
     inkscape:groupmode="layer"
     id="layer1"
     transform="translate(-42.251314,-96.74791)">
    <path
       id="rect86331"
       style="font-variation-settings:'wght' 100;fill:#c83737;stroke-width:49.5553"
       d="M 35.041016 0 L 16.755859 18.285156 C 18.811912 18.286362 20.650314 18.519886 22.267578 18.992188 C 23.032169 19.20985 23.757272 19.477378 24.445312 19.792969 L 45.603516 19.792969 C 46.291556 19.477227 47.016652 19.209888 47.78125 18.992188 C 49.407145 18.517351 51.25681 18.283864 53.326172 18.285156 L 35.041016 0 z M 16.603516 23.484375 C 15.809248 23.484375 15.099611 23.588623 14.474609 23.796875 C 13.862632 24.005127 13.374339 24.317758 13.009766 24.734375 C 12.658202 25.15103 12.482422 25.671855 12.482422 26.296875 C 12.482422 26.804692 12.632151 27.260447 12.931641 27.664062 C 13.23113 28.054677 13.758473 28.451815 14.513672 28.855469 C 15.268882 29.246083 16.323564 29.701837 17.677734 30.222656 C 20.906883 31.173207 23.354815 32.364585 25.021484 33.796875 C 26.701156 35.216125 27.541016 37.14977 27.541016 39.597656 C 27.541016 41.277354 27.085276 42.709687 26.173828 43.894531 C 25.262369 45.066412 23.992831 45.964861 22.365234 46.589844 C 20.737634 47.201674 18.843088 47.507812 16.681641 47.507812 C 15.030465 47.507812 13.513789 47.392653 12.126953 47.167969 L 35.041016 70.082031 L 57.964844 47.158203 C 56.566463 47.387541 55.035363 47.505859 53.367188 47.505859 C 51.205748 47.505859 49.311213 47.199872 47.683594 46.587891 C 46.055982 45.962908 44.786471 45.064421 43.875 43.892578 C 42.963571 42.707658 42.507812 41.275401 42.507812 39.595703 C 42.507812 37.147817 43.347684 35.214172 45.027344 33.794922 C 46.693994 32.362632 49.141945 31.171254 52.371094 30.220703 C 53.725264 29.699884 54.779927 29.24413 55.535156 28.853516 C 56.290336 28.449862 56.817849 28.052686 57.117188 27.662109 C 57.416348 27.259018 57.566018 26.803897 57.566406 26.296875 C 57.566034 25.672736 57.390187 25.150589 57.039062 24.734375 C 56.674493 24.317758 56.1862 24.005127 55.574219 23.796875 C 54.94924 23.588623 54.239584 23.484375 53.445312 23.484375 C 52.520844 23.484375 51.648422 23.573308 50.828125 23.755859 C 50.011566 23.937201 49.381843 24.137075 48.939453 24.357422 L 48.78125 25.103516 L 48.777344 25.103516 L 48.132812 28.169922 L 43.054688 28.169922 L 43.054688 25.103516 L 38.46875 25.103516 L 38.46875 47.173828 L 41.4375 47.798828 L 41.4375 51.802734 L 28.644531 51.802734 L 28.644531 47.798828 L 31.613281 47.173828 L 31.613281 25.103516 L 26.994141 25.103516 L 26.994141 28.169922 L 21.916016 28.169922 L 21.271484 25.103516 L 21.259766 25.048828 L 21.113281 24.359375 C 20.670691 24.138348 20.039613 23.937655 19.220703 23.755859 C 18.400402 23.573308 17.527988 23.484375 16.603516 23.484375 z M 63.988281 28.947266 C 63.807357 29.471741 63.56999 29.956149 63.269531 30.396484 C 62.501312 31.503281 61.335924 32.460309 59.773438 33.267578 C 58.210935 34.074885 56.212225 34.869162 53.777344 35.650391 C 52.696626 36.067084 51.837237 36.477244 51.199219 36.880859 C 50.5612 37.271474 50.105669 37.688163 49.832031 38.130859 C 49.545596 38.573555 49.402344 39.074866 49.402344 39.634766 C 49.402332 40.220668 49.552224 40.722017 49.851562 41.138672 C 50.151022 41.555214 50.593747 41.874223 51.179688 42.095703 C 51.765586 42.303955 52.494797 42.408203 53.367188 42.408203 C 54.617187 42.408203 55.769538 42.25202 56.824219 41.939453 C 57.8789 41.613922 58.614599 41.216822 59.03125 40.748047 L 59.617188 36.958984 L 64.910156 36.958984 L 64.910156 40.212891 L 70.082031 35.041016 L 63.988281 28.947266 z M 6.0683594 28.972656 L 0 35.041016 L 5.1386719 40.179688 L 5.1386719 36.960938 L 10.431641 36.960938 L 11.017578 40.75 C 11.434248 41.218775 12.169928 41.615989 13.224609 41.941406 C 14.279302 42.254049 15.431649 42.410156 16.681641 42.410156 C 17.554039 42.410156 18.283208 42.305908 18.869141 42.097656 C 19.455081 41.876176 19.897776 41.557167 20.197266 41.140625 C 20.49674 40.723932 20.646484 40.222659 20.646484 39.636719 C 20.646484 39.07682 20.503247 38.575509 20.216797 38.132812 C 19.943348 37.690116 19.487631 37.273427 18.849609 36.882812 C 18.211591 36.479197 17.352202 36.069037 16.271484 35.652344 C 13.836596 34.871115 11.837889 34.076838 10.275391 33.269531 C 8.7128999 32.462262 7.5475161 31.503243 6.7792969 30.396484 C 6.4835925 29.963124 6.2482807 29.487871 6.0683594 28.972656 z "
       transform="matrix(0.26458333,0,0,0.26458333,42.251314,96.74791)" />
  </g>
</svg>
