<?xml version="1.0" encoding="UTF-8" standalone="no"?>
<!-- Created with Inkscape (http://www.inkscape.org/) -->

<svg
   width="18.542484mm"
   height="18.54253mm"
   viewBox="0 0 18.542484 18.54253"
   version="1.1"
   id="svg5"
   inkscape:version="1.1.1 (3bf5ae0d25, 2021-09-20)"
   sodipodi:docname="sts-signet.svg"
   xmlns:inkscape="http://www.inkscape.org/namespaces/inkscape"
   xmlns:sodipodi="http://sodipodi.sourceforge.net/DTD/sodipodi-0.dtd"
   xmlns="http://www.w3.org/2000/svg"
   xmlns:svg="http://www.w3.org/2000/svg">
  <sodipodi:namedview
     id="namedview7"
     pagecolor="#ffffff"
     bordercolor="#666666"
     borderopacity="1.0"
     inkscape:pageshadow="2"
     inkscape:pageopacity="0.0"
     inkscape:pagecheckerboard="0"
     inkscape:document-units="mm"
     showgrid="false"
     inkscape:zoom="3.2248533"
     inkscape:cx="34.575217"
     inkscape:cy="45.583469"
     inkscape:window-width="1920"
     inkscape:window-height="1011"
     inkscape:window-x="0"
     inkscape:window-y="32"
     inkscape:window-maximized="1"
     inkscape:current-layer="layer1"
     inkscape:snap-intersection-paths="true"
     inkscape:snap-global="true"
     inkscape:object-paths="true"
     inkscape:snap-midpoints="true"
     inkscape:snap-bbox="true"
     showguides="true"
     inkscape:guide-bbox="true"
     fit-margin-top="0"
     fit-margin-left="0"
     fit-margin-right="0"
     fit-margin-bottom="0" />
  <defs
     id="defs2" />
  <g
     inkscape:label="Layer 1"
     inkscape:groupmode="layer"
     id="layer1"
     transform="translate(-42.251314,-96.74791)">
    <path
       id="rect86331"
       style="font-variation-settings:'wght' 100;fill:#c83737;stroke-width:13.1115"
       d="m 51.522669,96.74791 9.27113,9.27127 -9.27113,9.27126 -9.271355,-9.27126 z" />
    <path
       id="path31072-0-2-0"
       style="font-size:10.5833px;line-height:1.25;font-family:'Roboto Slab';-inkscape-font-specification:'Roboto Slab, @wght=900';font-variation-settings:'wght' 900;fill:#ffffff;stroke-width:0.264583"
       d="m 46.629358,101.58463 c -0.03777,2.7e-4 -0.07588,6.9e-4 -0.114204,0.002 -0.537435,0.0103 -1.014585,0.10508 -1.431438,0.28423 -0.416857,0.17914 -0.744141,0.42547 -0.981853,0.73897 -0.23771,0.31006 -0.356566,0.67352 -0.356566,1.09037 0,0.43408 0.09991,0.79754 0.299723,1.09037 0.203258,0.29283 0.511598,0.54606 0.925007,0.75965 0.413411,0.2136 0.942237,0.42375 1.586468,0.63045 0.28594,0.11025 0.513318,0.21877 0.682127,0.32556 0.16881,0.10335 0.289386,0.2136 0.361736,0.33073 0.07579,0.11713 0.113689,0.24977 0.113689,0.39791 0,0.15503 -0.03962,0.28766 -0.118856,0.39791 -0.07924,0.11021 -0.196371,0.19461 -0.351401,0.25321 -0.155028,0.0551 -0.347954,0.0827 -0.578776,0.0827 -0.330727,0 -0.635619,-0.0413 -0.914673,-0.12402 -0.279051,-0.0861 -0.473699,-0.1912 -0.583943,-0.31523 l -0.15503,-1.00252 h -1.400432 v 1.95337 c 0.471977,0.32383 0.945682,0.54433 1.421104,0.66146 0.475419,0.1171 1.019749,0.1757 1.632974,0.1757 0.571883,0 1.07315,-0.081 1.503786,-0.24288 0.430635,-0.16536 0.766532,-0.40308 1.007689,-0.71314 0.241154,-0.31349 0.361736,-0.69246 0.361736,-1.13688 0,-0.64767 -0.222213,-1.15928 -0.666626,-1.53479 -0.440973,-0.37896 -1.088655,-0.69418 -1.943034,-0.94568 -0.358291,-0.1378 -0.637344,-0.25838 -0.83716,-0.36173 -0.199813,-0.1068 -0.339339,-0.21188 -0.418579,-0.31523 -0.07924,-0.10679 -0.118856,-0.22737 -0.118856,-0.36173 0,-0.16537 0.04651,-0.30317 0.139528,-0.41341 0.09646,-0.11023 0.225653,-0.19295 0.387572,-0.24805 0.165365,-0.0551 0.353124,-0.0827 0.563274,-0.0827 0.2446,0 0.475425,0.024 0.692463,0.0723 0.21667,0.0481 0.383643,0.1012 0.500745,0.15968 l 0.03876,0.18242 0.0031,0.0145 0.170531,0.81132 h 1.343586 v -0.81132 h 1.222148 v 5.83944 l -0.785482,0.16536 v 1.05937 h 3.384807 v -1.05937 l -0.785482,-0.16536 v -5.83944 h 1.213363 v 0.81132 h 1.343586 l 0.170535,-0.81132 h 10e-4 l 0.04186,-0.1974 c 0.117049,-0.0583 0.283665,-0.11119 0.499713,-0.15917 0.217037,-0.0483 0.447863,-0.0723 0.692462,-0.0723 0.210151,0 0.397915,0.0276 0.563274,0.0827 0.16192,0.0551 0.291113,0.13782 0.387572,0.24805 0.093,0.11024 0.139528,0.24804 0.139528,0.41341 l 1.808676,-0.005 c 0,-0.41685 -0.118859,-0.78031 -0.356568,-1.09037 -0.23771,-0.3135 -0.564992,-0.55983 -0.981853,-0.73897 -0.416849,-0.17915 -0.894006,-0.27389 -1.431438,-0.28423 -0.61322,-0.0138 -1.155827,0.0482 -1.627807,0.18604 -0.2023,0.0576 -0.394147,0.12833 -0.576191,0.21187 h -5.59811 c -0.182044,-0.0835 -0.373893,-0.15428 -0.576191,-0.21187 -0.442478,-0.12922 -0.94698,-0.19164 -1.513602,-0.18759 z m 10.853084,2.12029 c 0,0.13436 -0.0396,0.25494 -0.118856,0.36173 -0.0792,0.10334 -0.218771,0.20843 -0.418579,0.31523 -0.199821,0.10335 -0.478869,0.22393 -0.83716,0.36173 -0.854379,0.2515 -1.502063,0.56672 -1.943031,0.94568 -0.44441,0.37551 -0.666628,0.88712 -0.666628,1.53479 0,0.44442 0.120586,0.82337 0.361735,1.13688 0.24116,0.31005 0.577051,0.54778 1.00769,0.71314 0.430641,0.16192 0.931905,0.24288 1.503786,0.24288 0.613219,0 1.157554,-0.0586 1.632974,-0.1757 0.475421,-0.11713 0.949124,-0.33763 1.421103,-0.66146 v -1.95337 h -1.400431 l -0.15503,1.00252 c -0.110239,0.12403 -0.304893,0.2291 -0.583944,0.31523 -0.279051,0.0827 -0.583943,0.12402 -0.914672,0.12402 -0.23082,0 -0.423757,-0.0276 -0.578776,-0.0827 -0.15503,-0.0586 -0.272169,-0.143 -0.351401,-0.25321 -0.0792,-0.11024 -0.118857,-0.24289 -0.118854,-0.39791 0,-0.14814 0.0379,-0.28078 0.113686,-0.39791 0.0724,-0.11713 0.192927,-0.22738 0.361736,-0.33073 0.168809,-0.10679 0.39619,-0.21531 0.68213,-0.32556 0.644229,-0.2067 1.173054,-0.41685 1.586466,-0.63045 0.413408,-0.21359 0.721749,-0.46681 0.925007,-0.75965 0.19981,-0.29283 0.299722,-0.65578 0.299725,-1.08985 z" />
  </g>
</svg>
